<svg width="419" height="662" viewBox="0 0 419 662" fill="none" xmlns="http://www.w3.org/2000/svg">
<rect width="51" height="49" rx="4" transform="matrix(-1 0 0 1 419 613)" fill="#2253DE"/>
<rect x="20" y="20" width="380" height="617" rx="8" fill="#42B2B4"/>
<g clip-path="url(#clip0_119_5)">
<path d="M305.077 236.085C303.457 253.939 298.839 272.765 291.598 290.93C282.643 313.393 270.408 333.178 256.216 348.147L255.428 347.46C269.552 332.563 281.731 312.865 290.649 290.495C298.708 270.28 303.502 249.242 304.518 229.667L305.524 229.835C305.417 231.903 305.268 233.986 305.077 236.085Z" fill="#F2F2F2"/>
<path d="M311.533 339.778C291.598 371.485 267.414 394.14 243.434 403.569L242.949 402.68C266.763 393.316 290.806 370.777 310.649 339.215L311.533 339.778Z" fill="#F2F2F2"/>
<path d="M304.594 258.314C302.973 276.168 298.355 294.994 291.114 313.159C282.159 335.622 269.924 355.407 255.732 370.376L254.944 369.689C269.068 354.793 281.247 335.095 290.165 312.724C298.224 292.509 303.018 271.471 304.034 251.896L305.04 252.064C304.933 254.132 304.784 256.215 304.594 258.314Z" fill="#F2F2F2"/>
<path d="M80.8088 304.15H67.7297C67.4502 304.151 67.1743 304.088 66.9225 303.967C66.6708 303.846 66.4498 303.669 66.276 303.45C66.1044 303.237 65.9833 302.988 65.9219 302.721C65.8604 302.454 65.8602 302.177 65.9212 301.91C67.1669 296.415 67.0886 290.702 65.6929 285.243C65.6046 284.884 65.626 284.506 65.7542 284.159C65.8824 283.812 66.1117 283.511 66.4124 283.295C73.1377 278.459 78.4341 278.599 82.1546 283.713C82.3223 283.946 82.4337 284.215 82.4801 284.498C83.4742 290.473 83.5292 296.567 82.6431 302.559C82.5816 303.001 82.3618 303.406 82.0245 303.698C81.6873 303.991 81.2554 304.152 80.8088 304.15Z" fill="#E6E6E6"/>
<path d="M76.7537 291.055H72.2545C72.0057 291.055 71.7671 290.957 71.5912 290.781C71.4152 290.605 71.3164 290.366 71.3164 290.118C71.3164 289.869 71.4152 289.63 71.5912 289.454C71.7671 289.279 72.0057 289.18 72.2545 289.18H76.7537C77.0022 289.18 77.2403 289.279 77.4158 289.455C77.5913 289.631 77.6899 289.869 77.6899 290.118C77.6899 290.366 77.5913 290.604 77.4158 290.78C77.2403 290.956 77.0022 291.055 76.7537 291.055Z" fill="white"/>
<path d="M76.7537 294.345H72.2545C72.0057 294.345 71.7671 294.246 71.5912 294.07C71.4152 293.894 71.3164 293.656 71.3164 293.407C71.3164 293.158 71.4152 292.92 71.5912 292.744C71.7671 292.568 72.0057 292.469 72.2545 292.469H76.7537C77.0022 292.47 77.2403 292.569 77.4158 292.744C77.5913 292.92 77.6899 293.158 77.6899 293.407C77.6899 293.655 77.5913 293.894 77.4158 294.069C77.2403 294.245 77.0022 294.344 76.7537 294.345Z" fill="white"/>
<path d="M76.7537 297.634H72.2545C72.0057 297.634 71.7671 297.535 71.5912 297.359C71.4152 297.184 71.3164 296.945 71.3164 296.696C71.3164 296.447 71.4152 296.209 71.5912 296.033C71.7671 295.857 72.0057 295.758 72.2545 295.758H76.7537C77.0022 295.759 77.2403 295.858 77.4158 296.034C77.5913 296.21 77.6899 296.448 77.6899 296.696C77.6899 296.945 77.5913 297.183 77.4158 297.359C77.2403 297.535 77.0022 297.634 76.7537 297.634Z" fill="white"/>
<path d="M318.509 362.536H305.43C305.15 362.536 304.874 362.474 304.623 362.352C304.371 362.231 304.15 362.054 303.976 361.836C303.805 361.622 303.684 361.373 303.622 361.106C303.561 360.84 303.56 360.562 303.621 360.296C304.867 354.8 304.789 349.088 303.393 343.629C303.305 343.269 303.326 342.891 303.454 342.544C303.583 342.197 303.812 341.896 304.113 341.68C310.838 336.844 316.134 336.985 319.855 342.098C320.023 342.331 320.134 342.6 320.18 342.883C321.174 348.858 321.229 354.952 320.343 360.944C320.282 361.386 320.062 361.791 319.725 362.084C319.387 362.376 318.956 362.537 318.509 362.536Z" fill="#E6E6E6"/>
<path d="M314.454 349.441H309.955C309.706 349.44 309.468 349.341 309.293 349.165C309.117 348.99 309.019 348.751 309.019 348.503C309.019 348.254 309.117 348.016 309.293 347.84C309.468 347.665 309.706 347.565 309.955 347.565H314.454C314.703 347.565 314.941 347.664 315.117 347.84C315.293 348.016 315.392 348.254 315.392 348.503C315.392 348.752 315.293 348.99 315.117 349.166C314.941 349.342 314.703 349.441 314.454 349.441Z" fill="white"/>
<path d="M314.454 352.73H309.955C309.706 352.73 309.468 352.63 309.293 352.455C309.117 352.279 309.019 352.041 309.019 351.792C309.019 351.544 309.117 351.305 309.293 351.13C309.468 350.954 309.706 350.855 309.955 350.854H314.454C314.703 350.854 314.941 350.953 315.117 351.129C315.293 351.305 315.392 351.543 315.392 351.792C315.392 352.041 315.293 352.279 315.117 352.455C314.941 352.631 314.703 352.73 314.454 352.73Z" fill="white"/>
<path d="M314.454 356.019H309.955C309.706 356.019 309.468 355.92 309.293 355.744C309.117 355.568 309.019 355.33 309.019 355.081C309.019 354.833 309.117 354.595 309.293 354.419C309.468 354.243 309.706 354.144 309.955 354.144H314.454C314.703 354.144 314.941 354.242 315.117 354.418C315.293 354.594 315.392 354.833 315.392 355.081C315.392 355.33 315.293 355.569 315.117 355.745C314.941 355.921 314.703 356.019 314.454 356.019Z" fill="white"/>
<path d="M368 442.511C368 442.575 367.988 442.639 367.963 442.698C367.939 442.758 367.903 442.812 367.857 442.857C367.812 442.903 367.758 442.939 367.698 442.963C367.639 442.988 367.575 443 367.511 443H56.4894C56.3596 443 56.2351 442.949 56.1433 442.857C56.0516 442.765 56 442.641 56 442.511C56 442.381 56.0516 442.257 56.1433 442.165C56.2351 442.073 56.3596 442.021 56.4894 442.021H367.511C367.575 442.021 367.639 442.034 367.698 442.058C367.758 442.083 367.812 442.119 367.857 442.164C367.903 442.21 367.939 442.264 367.963 442.323C367.988 442.383 368 442.446 368 442.511Z" fill="#CCCCCC"/>
<path d="M138.045 412.553L137.229 401.21C131.886 398.539 125.971 397.213 119.999 397.347C128.401 403.84 127.728 416.818 133.547 425.7C135.383 428.457 137.816 430.764 140.666 432.453C143.515 434.141 146.708 435.167 150.008 435.454L157.001 439.476C157.801 434.19 157.445 428.793 155.958 423.658C154.471 418.523 151.889 413.771 148.388 409.73C146.402 407.482 144.14 405.494 141.657 403.811C140.128 408.199 138.045 412.553 138.045 412.553Z" fill="#F2F2F2"/>
<path d="M285.955 414.198L286.771 402.854C292.114 400.184 298.029 398.858 304.001 398.991C295.599 405.485 296.272 418.463 290.453 427.345C288.617 430.101 286.184 432.409 283.334 434.097C280.485 435.786 277.292 436.811 273.992 437.098L266.999 441.12C266.199 435.835 266.555 430.438 268.042 425.303C269.529 420.168 272.111 415.416 275.612 411.374C277.598 409.127 279.86 407.138 282.343 405.456C283.872 409.843 285.955 414.198 285.955 414.198Z" fill="#F2F2F2"/>
<path d="M208.299 286.189C212.614 286.189 216.112 282.691 216.112 278.377C216.112 274.062 212.614 270.564 208.299 270.564C203.983 270.564 200.485 274.062 200.485 278.377C200.485 282.691 203.983 286.189 208.299 286.189Z" fill="#0F2852"/>
<path d="M212.31 275.121C212.192 275.009 212.036 274.946 211.874 274.946C211.711 274.946 211.555 275.009 211.437 275.121C209.779 276.443 208.29 277.963 207.003 279.649C206.687 279.038 206.372 278.426 206.056 277.815C205.691 277.11 204.626 277.733 204.99 278.438C205.452 279.332 205.915 280.226 206.377 281.12C206.432 281.211 206.511 281.286 206.604 281.339C206.697 281.391 206.802 281.418 206.909 281.418C207.016 281.418 207.121 281.391 207.215 281.339C207.308 281.286 207.386 281.211 207.442 281.12C208.813 279.189 210.452 277.462 212.31 275.993C212.425 275.877 212.489 275.72 212.489 275.557C212.489 275.394 212.425 275.237 212.31 275.121Z" fill="white"/>
<path d="M173.337 300.529L161.554 282.028L175.198 274.723L178.779 288.838L204.011 302.47C205.007 302.111 206.086 302.05 207.117 302.294C208.147 302.539 209.084 303.077 209.813 303.844C210.542 304.611 211.033 305.574 211.224 306.615C211.416 307.656 211.3 308.731 210.892 309.707C210.483 310.684 209.799 311.52 208.923 312.115C208.047 312.709 207.017 313.036 205.959 313.056C204.9 313.075 203.859 312.786 202.962 312.224C202.065 311.662 201.35 310.851 200.906 309.891L173.337 300.529Z" fill="#A0616A"/>
<path d="M152.945 259.839C149.243 265.273 162.4 285.028 162.4 285.028C163.041 283.646 169.168 299.158 170.194 298.241C173.11 295.637 177.676 288.383 180.214 288.06C181.665 287.875 176.848 277.584 176.848 277.584C176.848 277.584 174.646 271.507 171.659 263.745C170.855 261.535 169.505 259.564 167.734 258.015C165.963 256.467 163.829 255.392 161.531 254.89C161.531 254.89 156.647 254.404 152.945 259.839Z" fill="#3F3D56"/>
<path d="M153.126 436.9L158.722 436.9L161.384 415.32L153.125 415.32L153.126 436.9Z" fill="#A0616A"/>
<path d="M151.698 435.074L153.274 435.074L159.423 432.573L162.719 435.073H162.719C164.582 435.073 166.368 435.813 167.685 437.13C169.002 438.447 169.742 440.233 169.742 442.095V442.323L151.699 442.324L151.698 435.074Z" fill="#2F2E41"/>
<path d="M179.123 436.9L184.719 436.9L187.382 415.32L179.123 415.32L179.123 436.9Z" fill="#A0616A"/>
<path d="M177.696 435.074L179.271 435.074L185.421 432.573L188.716 435.073H188.717C190.579 435.073 192.366 435.813 193.683 437.13C195 438.447 195.74 440.233 195.74 442.095V442.323L177.696 442.324L177.696 435.074Z" fill="#2F2E41"/>
<path d="M181.546 318.921L145.147 319.831C138.235 323.585 138.13 331.71 140.395 341.356C140.395 341.356 139.63 347.09 141.159 348.619C142.689 350.148 143.453 350.148 142.689 352.824C141.924 355.499 145.964 359.869 145.473 360.36C144.982 360.851 143.836 363.526 143.836 363.526L147.659 385.314C147.659 385.314 150.335 423.156 151.1 423.92C151.864 424.685 152.629 423.92 151.864 425.832C151.1 427.743 150.335 426.978 151.1 427.743C151.777 428.473 152.415 429.238 153.011 430.036H162.254C162.254 430.036 162.951 426.214 162.951 425.832C162.951 425.449 163.716 423.156 163.716 422.774C163.716 422.391 163.04 421.716 163.04 421.716C162.807 420.939 162.649 420.141 162.569 419.333C162.569 418.569 160.275 389.136 160.275 389.136L164.863 350.912L175.95 388.372C175.95 388.372 175.95 421.245 176.715 422.009C177.479 422.774 177.479 422.391 177.097 423.92C176.715 425.449 175.186 425.067 176.332 426.214C177.479 427.36 177.862 425.449 177.479 427.36L177.097 429.272L188.567 429.436C188.567 429.436 190.096 426.214 189.331 425.067C188.567 423.92 188.613 424.233 189.545 422.357C190.478 420.48 190.861 420.098 190.478 419.716C190.096 419.333 190.096 417.3 190.096 417.3L188.184 380.727C188.184 380.727 187.802 342.121 187.802 340.974C187.773 340.384 187.882 339.795 188.12 339.254V337.698L186.655 332.183L181.546 318.921Z" fill="#2F2E41"/>
<path d="M159.681 243.252C165.927 243.252 170.99 238.19 170.99 231.945C170.99 225.7 165.927 220.638 159.681 220.638C153.435 220.638 148.372 225.7 148.372 231.945C148.372 238.19 153.435 243.252 159.681 243.252Z" fill="#A0616A"/>
<path d="M165.335 250.725C167.772 252.173 169.229 254.834 170.066 257.542C171.615 262.554 172.547 267.737 172.842 272.975L173.726 288.658L184.67 322.05C175.185 330.074 139.532 323.874 139.532 323.874C139.532 323.874 138.438 323.509 139.532 322.415C140.626 321.32 141.692 322.29 140.597 321.196C139.503 320.101 140.258 321.32 140.622 320.226C140.987 319.132 140.622 319.862 140.258 319.497C139.893 319.132 143.082 315.849 143.082 315.849L140.163 296.682L136.515 258.02C140.893 252.549 149.697 249.323 149.697 249.323L151.972 245.229L163.346 246.139L165.335 250.725Z" fill="#3F3D56"/>
<path d="M169.003 225.938C169.882 226.593 170.533 227.508 170.865 228.553C170.993 226.845 171.001 225.131 170.889 223.422C170.756 222.221 169.91 221.951 168.931 221.638C168.047 221.355 167.047 221.036 166.778 219.87C163.223 216.413 157.035 216.587 152.8 217.793C150.469 218.457 149.128 219.31 149.008 219.809L148.984 219.912L148.889 219.959C147.093 220.857 146.743 223.693 146.766 225.914C146.81 230.098 148.255 234.849 149.069 235.235C149.112 235.256 149.123 235.248 149.141 235.232C150.367 234.253 151.862 235.307 152.519 235.88C152.907 233.279 154.155 230.884 156.064 229.076C157.973 227.268 160.433 226.151 163.051 225.905C163.906 225.822 164.754 225.68 165.59 225.479C166.013 225.37 166.449 225.313 166.886 225.309C167.64 225.298 168.378 225.517 169.003 225.938Z" fill="#2F2E41"/>
<path d="M239.209 327.931L260.964 305.844L266.695 288.179L257.472 284.449C252.903 289.057 248.199 303.163 248.199 303.163L233.351 323.087C233.232 323.131 233.114 323.178 232.998 323.233C232.314 323.556 231.725 324.049 231.288 324.666C230.851 325.283 230.581 326.002 230.503 326.754C230.425 327.505 230.542 328.265 230.843 328.958C231.145 329.651 231.62 330.255 232.223 330.711C232.826 331.167 233.536 331.46 234.285 331.561C235.034 331.662 235.797 331.569 236.499 331.289C237.202 331.01 237.82 330.554 238.295 329.965C238.769 329.377 239.084 328.676 239.209 327.931Z" fill="#FFB8B8"/>
<path d="M254.956 286.47L266.62 289.843L266.664 289.835C270.951 289.002 274.343 281.879 276.433 276.049C277.12 274.126 277.052 272.014 276.242 270.14C275.431 268.265 273.939 266.769 272.067 265.952C270.682 265.359 269.159 265.165 267.67 265.392C266.18 265.619 264.784 266.258 263.639 267.237L257.823 272.244L254.956 286.47Z" fill="#0F2852"/>
<path d="M244.976 436.244L238.703 436.244L235.719 412.053L244.977 412.053L244.976 436.244Z" fill="#FFB8B8"/>
<path d="M246.576 434.196L244.811 434.196L237.917 431.393L234.222 434.196H234.222C232.134 434.196 230.132 435.025 228.655 436.501C227.179 437.977 226.349 439.979 226.349 442.067V442.323L246.576 442.323L246.576 434.196Z" fill="#2F2E41"/>
<path d="M272.811 436.244L266.537 436.244L263.553 412.053L272.812 412.053L272.811 436.244Z" fill="#FFB8B8"/>
<path d="M274.411 434.196L272.645 434.196L265.752 431.393L262.057 434.196H262.056C259.968 434.196 257.966 435.025 256.49 436.501C255.013 437.977 254.184 439.979 254.184 442.067V442.323L274.41 442.323L274.411 434.196Z" fill="#2F2E41"/>
<path d="M282.376 332.045C282.376 332.045 283.108 340.833 281.277 349.255C279.446 357.676 279.446 381.395 279.446 381.395L275.417 427.615L263.331 426.516L260.035 349.255L248.315 375.253L249.414 378.914L247.95 379.83C247.95 379.83 249.047 386.97 248.315 386.97C247.583 386.97 245.751 388.069 245.751 388.069L247.216 425.784L234.764 425.418L230.369 372.323L235.13 341.931L235.497 336.073L237.145 336.14L237.984 333.692L239.525 329.481L282.376 332.045Z" fill="#2F2E41"/>
<path d="M283.009 333.89L283.074 333.799C286.56 328.919 281.317 317.194 280.526 315.494L283.857 314.413L283.107 308.039L282.752 305.197L285.297 302.652L285.304 302.589L286.769 289.773L288.899 281.261C289.702 278.043 289.634 274.669 288.701 271.486C287.769 268.304 286.006 265.426 283.594 263.15L278.671 258.508L272.687 249.656H263.038L259.729 255.905C256.521 256.646 253.676 258.489 251.687 261.112C249.699 263.735 248.694 266.973 248.847 270.261L249.597 286.648L246.662 307.051L246.66 310.744L243.356 314.414L244.078 318.02L241.564 319.098L240.453 324.277C239.994 324.883 236.962 328.926 236.962 330.031C236.962 330.197 237.084 330.357 237.347 330.535C239.414 331.934 250.836 334.786 255.891 332.764C261.276 330.611 282.682 333.84 282.898 333.873L283.009 333.89Z" fill="#0F2852"/>
<path d="M266.616 246.799C273.673 246.799 279.395 241.079 279.395 234.022C279.395 226.966 273.673 221.246 266.616 221.246C259.558 221.246 253.836 226.966 253.836 234.022C253.836 241.079 259.558 246.799 266.616 246.799Z" fill="#FFB8B8"/>
<path d="M265.391 247.006C267.37 246.986 269.344 246.796 271.291 246.44C273.219 245.996 277.471 242.709 278.63 240.767C279.491 239.323 280.008 237.091 280.29 235.473C280.671 233.331 280.597 231.134 280.075 229.022C279.552 226.911 278.591 224.933 277.255 223.216C276.74 222.497 276.04 221.93 275.23 221.576C275.158 221.55 275.084 221.527 275.01 221.508C273.835 221.231 272.769 220.609 271.95 219.722C271.791 219.543 271.619 219.375 271.436 219.22C270.517 218.485 269.437 217.977 268.284 217.739C266.422 217.291 263.758 217.852 260.367 219.405C258.663 220.186 256.772 219.968 255.314 219.691C255.232 219.678 255.148 219.686 255.071 219.715C254.993 219.744 254.924 219.792 254.871 219.856C254.27 220.451 253.465 220.796 252.619 220.822C252.102 220.858 251.577 221.589 250.944 222.541C250.8 222.757 250.633 223.01 250.511 223.164L250.487 222.874L250.202 223.205C249.754 223.725 249.446 224.349 249.304 225.02C249.163 225.691 249.194 226.387 249.394 227.043C249.594 227.698 249.957 228.293 250.449 228.771C250.941 229.249 251.546 229.594 252.207 229.776C252.732 229.901 253.268 229.972 253.807 229.988C254.134 230.009 254.472 230.031 254.797 230.079C255.84 230.264 256.817 230.717 257.633 231.393C258.449 232.069 259.076 232.945 259.452 233.936C259.541 234.164 259.681 234.37 259.862 234.536C260.042 234.702 260.259 234.824 260.495 234.893C260.73 234.962 260.979 234.977 261.22 234.934C261.462 234.892 261.691 234.795 261.89 234.651C262.22 234.38 262.61 234.193 263.028 234.105C263.446 234.018 263.879 234.033 264.29 234.149C264.647 234.336 264.93 234.64 265.09 235.01C265.283 235.422 265.594 235.767 265.985 236.001C267.315 236.644 267.483 239.64 267.076 242.152C266.684 244.573 265.83 246.339 265 246.447C264.362 246.529 264.289 246.577 264.246 246.691L264.207 246.794L264.282 246.887C264.639 247.006 265.017 247.046 265.391 247.006Z" fill="#2F2E41"/>
<path d="M254.789 287.836L248.646 280.011C242.389 281.733 231.287 291.627 231.287 291.627L208.487 301.52C207.726 301.392 206.945 301.467 206.222 301.737C205.499 302.007 204.86 302.462 204.37 303.058C203.879 303.653 203.554 304.367 203.427 305.128C203.3 305.889 203.375 306.67 203.646 307.392C203.917 308.115 204.374 308.753 204.97 309.243C205.566 309.733 206.28 310.057 207.042 310.183C207.803 310.309 208.584 310.233 209.306 309.961C210.029 309.689 210.666 309.232 211.156 308.636L241.023 300.305L254.789 287.836Z" fill="#FFB8B8"/>
<path d="M253.317 289.625L263.009 278.823L263.547 271.168C263.647 269.665 263.325 268.164 262.617 266.835C261.908 265.505 260.842 264.4 259.539 263.645C257.765 262.633 255.673 262.332 253.685 262.803C251.698 263.274 249.964 264.482 248.833 266.182C245.408 271.343 241.724 278.32 243.62 282.253L243.639 282.293L253.317 289.625Z" fill="#0F2852"/>
<path d="M163.985 330.228L138.794 317.329C137.002 316.411 136.409 313.978 137.471 311.904L153.896 279.84C154.958 277.766 157.28 276.825 159.072 277.743L184.262 290.642C186.054 291.559 186.648 293.993 185.586 296.066L169.161 328.131C168.098 330.204 165.776 331.145 163.985 330.228Z" fill="#E6E6E6"/>
<path d="M159.681 324.298L142.566 315.534C140.888 314.675 140.332 312.396 141.327 310.454L154.972 283.815C155.967 281.873 158.142 280.992 159.82 281.851L180.491 292.436C182.169 293.295 182.725 295.574 181.73 297.517L174.317 311.988C169.886 320.639 167.156 328.125 159.681 324.298Z" fill="white"/>
<path d="M168.142 309.751L152.983 301.988C152.798 301.856 152.666 301.662 152.612 301.441C152.559 301.22 152.586 300.987 152.69 300.784C152.793 300.582 152.967 300.423 153.178 300.338C153.388 300.252 153.623 300.246 153.839 300.319L168.998 308.081C169.183 308.213 169.315 308.407 169.369 308.629C169.423 308.85 169.395 309.083 169.291 309.285C169.188 309.488 169.014 309.646 168.804 309.732C168.593 309.817 168.358 309.824 168.142 309.751Z" fill="#0F2852"/>
<path d="M154.753 307.058L151.294 305.287C151.109 305.155 150.977 304.961 150.923 304.739C150.869 304.518 150.896 304.285 151 304.083C151.104 303.88 151.277 303.722 151.488 303.636C151.699 303.551 151.934 303.544 152.149 303.617L155.609 305.389C155.794 305.521 155.926 305.715 155.98 305.936C156.033 306.157 156.006 306.39 155.902 306.593C155.799 306.795 155.625 306.954 155.414 307.039C155.204 307.125 154.969 307.131 154.753 307.058Z" fill="#0F2852"/>
<path d="M159.191 313.494L149.604 308.585C149.419 308.453 149.287 308.259 149.233 308.038C149.179 307.817 149.207 307.584 149.311 307.381C149.414 307.179 149.587 307.02 149.798 306.935C150.009 306.849 150.244 306.843 150.459 306.916L160.046 311.825C160.231 311.957 160.363 312.151 160.417 312.372C160.471 312.593 160.443 312.826 160.34 313.029C160.236 313.231 160.063 313.39 159.852 313.475C159.641 313.561 159.406 313.567 159.191 313.494V313.494Z" fill="#0F2852"/>
<path d="M174.142 298.04L158.982 290.278C158.797 290.145 158.665 289.951 158.611 289.73C158.558 289.509 158.585 289.276 158.689 289.073C158.792 288.871 158.966 288.712 159.177 288.627C159.387 288.542 159.622 288.535 159.838 288.608L174.997 296.37C175.182 296.502 175.314 296.696 175.368 296.918C175.422 297.139 175.394 297.372 175.29 297.574C175.187 297.777 175.014 297.935 174.803 298.021C174.592 298.106 174.357 298.113 174.142 298.04Z" fill="#0F2852"/>
<path d="M160.752 295.348L157.293 293.576C157.107 293.444 156.976 293.25 156.922 293.029C156.868 292.808 156.895 292.575 156.999 292.372C157.103 292.17 157.276 292.011 157.487 291.926C157.698 291.84 157.932 291.833 158.148 291.907L161.607 293.678C161.793 293.81 161.924 294.004 161.978 294.225C162.032 294.446 162.005 294.68 161.901 294.882C161.797 295.085 161.624 295.243 161.413 295.329C161.202 295.414 160.968 295.421 160.752 295.348Z" fill="#0F2852"/>
<path d="M165.19 301.784L155.603 296.875C155.418 296.743 155.286 296.548 155.232 296.327C155.178 296.106 155.206 295.873 155.309 295.671C155.413 295.468 155.586 295.31 155.797 295.224C156.008 295.139 156.243 295.132 156.458 295.205L166.045 300.114C166.23 300.246 166.362 300.44 166.416 300.661C166.47 300.882 166.442 301.116 166.339 301.318C166.235 301.521 166.062 301.679 165.851 301.765C165.64 301.85 165.405 301.857 165.19 301.784L165.19 301.784Z" fill="#0F2852"/>
<path d="M143.11 302.312L137.419 281.13L152.627 278.252L151.809 292.791L171.791 313.362C172.849 313.318 173.896 313.584 174.806 314.126C175.715 314.667 176.448 315.462 176.913 316.413C177.379 317.363 177.558 318.429 177.428 319.479C177.299 320.53 176.866 321.52 176.184 322.329C175.501 323.138 174.597 323.731 173.584 324.036C172.57 324.34 171.489 324.343 170.473 324.044C169.458 323.746 168.551 323.158 167.864 322.353C167.176 321.547 166.738 320.56 166.603 319.51L143.11 302.312Z" fill="#A0616A"/>
<path d="M135.863 257.381C130.701 261.455 137.327 284.245 137.327 284.245C138.352 283.12 139.544 299.754 140.798 299.188C144.362 297.578 150.893 292.027 153.411 292.48C154.851 292.738 153.342 281.477 153.342 281.477C153.342 281.477 153.065 275.019 152.543 266.719C152.44 264.369 151.743 262.084 150.518 260.076C149.293 258.068 147.58 256.403 145.538 255.235C145.538 255.235 141.025 253.307 135.863 257.381Z" fill="#3F3D56"/>
<path d="M221.754 349.328L208.008 342.838C207.714 342.7 207.455 342.497 207.251 342.245C207.046 341.992 206.902 341.697 206.828 341.381C206.753 341.072 206.75 340.749 206.817 340.439C206.885 340.128 207.023 339.836 207.219 339.586C211.201 334.498 213.935 328.548 215.203 322.213C215.298 321.728 215.559 321.291 215.941 320.977C216.323 320.663 216.802 320.491 217.297 320.49C224.308 320.514 229.547 323.073 232.87 328.096C233.045 328.357 233.161 328.654 233.21 328.965C233.259 329.275 233.239 329.593 233.153 329.895C231.229 336.525 228.302 342.821 224.472 348.565C224.188 348.999 223.756 349.316 223.256 349.456C222.757 349.596 222.223 349.551 221.754 349.328Z" fill="#E6E6E6"/>
<path d="M225.798 340.225L215.287 335.263C215.026 335.14 214.824 334.917 214.727 334.645C214.629 334.373 214.644 334.073 214.767 333.812C214.89 333.55 215.113 333.349 215.385 333.251C215.657 333.154 215.957 333.168 216.219 333.292L226.729 338.254C226.859 338.315 226.975 338.401 227.071 338.507C227.167 338.613 227.242 338.737 227.29 338.872C227.338 339.007 227.36 339.149 227.353 339.292C227.346 339.435 227.311 339.576 227.25 339.705C227.188 339.835 227.102 339.951 226.996 340.047C226.89 340.143 226.766 340.218 226.632 340.266C226.497 340.314 226.354 340.335 226.211 340.329C226.068 340.322 225.927 340.287 225.798 340.225H225.798Z" fill="white"/>
<path d="M227.431 336.768L216.92 331.806C216.659 331.682 216.457 331.46 216.359 331.188C216.262 330.916 216.276 330.616 216.4 330.355C216.523 330.093 216.746 329.892 217.018 329.794C217.29 329.696 217.59 329.711 217.851 329.834L228.362 334.797C228.623 334.92 228.825 335.142 228.923 335.414C229.02 335.687 229.006 335.986 228.882 336.248C228.759 336.509 228.537 336.711 228.264 336.809C227.992 336.906 227.692 336.892 227.431 336.768V336.768Z" fill="white"/>
<path d="M213.387 228.244L212.408 228.352C208.046 211.212 199.59 199.339 187.955 194.014C173.163 187.245 154.873 191.79 136.453 206.813C117.939 221.913 101.55 245.764 90.3038 273.974L89.3545 273.54C100.65 245.206 117.123 221.24 135.741 206.056C154.451 190.796 173.115 186.217 188.294 193.163C200.263 198.641 208.94 210.772 213.387 228.244Z" fill="#F2F2F2"/>
<path d="M105.445 250.566C102.886 255.955 100.453 261.538 98.2115 267.16C85.3147 299.511 78.7791 332.55 79.3132 362.707L78.3052 362.6C77.7706 332.331 84.325 299.177 97.2622 266.725C99.5098 261.088 101.95 255.489 104.516 250.085L105.445 250.566Z" fill="#F2F2F2"/>
<path d="M104.961 272.795C102.403 278.184 99.9688 283.767 97.7277 289.389C84.8308 321.74 78.2952 354.779 78.8293 384.936L77.8213 384.829C77.2867 354.56 83.8411 321.406 96.7783 288.954C99.0259 283.317 101.467 277.718 104.033 272.314L104.961 272.795Z" fill="#F2F2F2"/>
<path d="M77.8698 280.879C78.984 279.205 78.3245 276.808 76.3967 275.526C74.4689 274.243 72.0029 274.561 70.8886 276.236C69.7744 277.91 70.4339 280.307 72.3617 281.589C74.2895 282.872 76.7555 282.554 77.8698 280.879Z" fill="#CCCCCC"/>
<path d="M315.135 341.349C316.249 339.674 315.59 337.277 313.662 335.995C311.734 334.713 309.268 335.031 308.154 336.705C307.039 338.38 307.699 340.777 309.627 342.059C311.555 343.341 314.021 343.023 315.135 341.349Z" fill="#CCCCCC"/>
</g>
<rect x="-0.5" y="0.5" width="50" height="48" rx="3.5" transform="matrix(-1 0 0 1 50 0)" stroke="#2253DE"/>
<defs>
<clipPath id="clip0_119_5">
<rect width="312" height="253" fill="white" transform="translate(56 190)"/>
</clipPath>
</defs>
</svg>
