<svg width="420" height="549" viewBox="0 0 420 549" fill="none" xmlns="http://www.w3.org/2000/svg">
<rect width="51" height="49" rx="4" transform="matrix(-1 0 0 1 420 500)" fill="#0F2852"/>
<rect x="20" y="20" width="380" height="509" rx="8" fill="#F7F8F8"/>
<g clip-path="url(#clip0_124_6)">
<path d="M365.863 360.293H273.159V359.536H366L365.863 360.293Z" fill="#3F3D56"/>
<path d="M73.8757 143.338C75.3514 143.338 76.5477 142.143 76.5477 140.669C76.5477 139.195 75.3514 138 73.8757 138C72.3999 138 71.2036 139.195 71.2036 140.669C71.2036 142.143 72.3999 143.338 73.8757 143.338Z" fill="#E6E6E6"/>
<path d="M87.4013 143.338C88.877 143.338 90.0733 142.143 90.0733 140.669C90.0733 139.195 88.877 138 87.4013 138C85.9256 138 84.7292 139.195 84.7292 140.669C84.7292 142.143 85.9256 143.338 87.4013 143.338Z" fill="#E6E6E6"/>
<path d="M100.927 143.338C102.403 143.338 103.599 142.143 103.599 140.669C103.599 139.195 102.403 138 100.927 138C99.4514 138 98.2551 139.195 98.2551 140.669C98.2551 142.143 99.4514 143.338 100.927 143.338Z" fill="#E6E6E6"/>
<path d="M114.453 143.338C115.929 143.338 117.125 142.143 117.125 140.669C117.125 139.195 115.929 138 114.453 138C112.977 138 111.781 139.195 111.781 140.669C111.781 142.143 112.977 143.338 114.453 143.338Z" fill="#E6E6E6"/>
<path d="M127.979 143.338C129.455 143.338 130.651 142.143 130.651 140.669C130.651 139.195 129.455 138 127.979 138C126.503 138 125.307 139.195 125.307 140.669C125.307 142.143 126.503 143.338 127.979 143.338Z" fill="#E6E6E6"/>
<path d="M141.505 143.338C142.981 143.338 144.177 142.143 144.177 140.669C144.177 139.195 142.981 138 141.505 138C140.029 138 138.833 139.195 138.833 140.669C138.833 142.143 140.029 143.338 141.505 143.338Z" fill="#E6E6E6"/>
<path d="M155.03 143.338C156.506 143.338 157.702 142.143 157.702 140.669C157.702 139.195 156.506 138 155.03 138C153.555 138 152.358 139.195 152.358 140.669C152.358 142.143 153.555 143.338 155.03 143.338Z" fill="#E6E6E6"/>
<path d="M168.556 143.338C170.032 143.338 171.228 142.143 171.228 140.669C171.228 139.195 170.032 138 168.556 138C167.081 138 165.884 139.195 165.884 140.669C165.884 142.143 167.081 143.338 168.556 143.338Z" fill="#E6E6E6"/>
<path d="M182.082 143.338C183.558 143.338 184.754 142.143 184.754 140.669C184.754 139.195 183.558 138 182.082 138C180.606 138 179.41 139.195 179.41 140.669C179.41 142.143 180.606 143.338 182.082 143.338Z" fill="#E6E6E6"/>
<path d="M195.608 143.338C197.084 143.338 198.28 142.143 198.28 140.669C198.28 139.195 197.084 138 195.608 138C194.132 138 192.936 139.195 192.936 140.669C192.936 142.143 194.132 143.338 195.608 143.338Z" fill="#E6E6E6"/>
<path d="M73.8757 157.018C75.3514 157.018 76.5477 155.823 76.5477 154.349C76.5477 152.875 75.3514 151.68 73.8757 151.68C72.3999 151.68 71.2036 152.875 71.2036 154.349C71.2036 155.823 72.3999 157.018 73.8757 157.018Z" fill="#E6E6E6"/>
<path d="M87.4013 157.018C88.877 157.018 90.0733 155.823 90.0733 154.349C90.0733 152.875 88.877 151.68 87.4013 151.68C85.9256 151.68 84.7292 152.875 84.7292 154.349C84.7292 155.823 85.9256 157.018 87.4013 157.018Z" fill="#E6E6E6"/>
<path d="M100.927 157.018C102.403 157.018 103.599 155.823 103.599 154.349C103.599 152.875 102.403 151.68 100.927 151.68C99.4514 151.68 98.2551 152.875 98.2551 154.349C98.2551 155.823 99.4514 157.018 100.927 157.018Z" fill="#E6E6E6"/>
<path d="M114.453 157.018C115.929 157.018 117.125 155.823 117.125 154.349C117.125 152.875 115.929 151.68 114.453 151.68C112.977 151.68 111.781 152.875 111.781 154.349C111.781 155.823 112.977 157.018 114.453 157.018Z" fill="#0F2852"/>
<path d="M127.979 157.018C129.455 157.018 130.651 155.823 130.651 154.349C130.651 152.875 129.455 151.68 127.979 151.68C126.503 151.68 125.307 152.875 125.307 154.349C125.307 155.823 126.503 157.018 127.979 157.018Z" fill="#E6E6E6"/>
<path d="M141.505 157.018C142.981 157.018 144.177 155.823 144.177 154.349C144.177 152.875 142.981 151.68 141.505 151.68C140.029 151.68 138.833 152.875 138.833 154.349C138.833 155.823 140.029 157.018 141.505 157.018Z" fill="#E6E6E6"/>
<path d="M155.03 157.018C156.506 157.018 157.702 155.823 157.702 154.349C157.702 152.875 156.506 151.68 155.03 151.68C153.555 151.68 152.358 152.875 152.358 154.349C152.358 155.823 153.555 157.018 155.03 157.018Z" fill="#E6E6E6"/>
<path d="M168.556 157.018C170.032 157.018 171.228 155.823 171.228 154.349C171.228 152.875 170.032 151.68 168.556 151.68C167.081 151.68 165.884 152.875 165.884 154.349C165.884 155.823 167.081 157.018 168.556 157.018Z" fill="#E6E6E6"/>
<path d="M182.082 157.018C183.558 157.018 184.754 155.823 184.754 154.349C184.754 152.875 183.558 151.68 182.082 151.68C180.606 151.68 179.41 152.875 179.41 154.349C179.41 155.823 180.606 157.018 182.082 157.018Z" fill="#E6E6E6"/>
<path d="M195.608 157.018C197.084 157.018 198.28 155.823 198.28 154.349C198.28 152.875 197.084 151.68 195.608 151.68C194.132 151.68 192.936 152.875 192.936 154.349C192.936 155.823 194.132 157.018 195.608 157.018Z" fill="#E6E6E6"/>
<path d="M73.8757 170.698C75.3514 170.698 76.5477 169.503 76.5477 168.029C76.5477 166.555 75.3514 165.36 73.8757 165.36C72.3999 165.36 71.2036 166.555 71.2036 168.029C71.2036 169.503 72.3999 170.698 73.8757 170.698Z" fill="#E6E6E6"/>
<path d="M87.4013 170.698C88.877 170.698 90.0733 169.503 90.0733 168.029C90.0733 166.555 88.877 165.36 87.4013 165.36C85.9256 165.36 84.7292 166.555 84.7292 168.029C84.7292 169.503 85.9256 170.698 87.4013 170.698Z" fill="#E6E6E6"/>
<path d="M100.927 170.698C102.403 170.698 103.599 169.503 103.599 168.029C103.599 166.555 102.403 165.36 100.927 165.36C99.4514 165.36 98.2551 166.555 98.2551 168.029C98.2551 169.503 99.4514 170.698 100.927 170.698Z" fill="#E6E6E6"/>
<path d="M114.453 170.698C115.929 170.698 117.125 169.503 117.125 168.029C117.125 166.555 115.929 165.36 114.453 165.36C112.977 165.36 111.781 166.555 111.781 168.029C111.781 169.503 112.977 170.698 114.453 170.698Z" fill="#E6E6E6"/>
<path d="M127.979 170.698C129.455 170.698 130.651 169.503 130.651 168.029C130.651 166.555 129.455 165.36 127.979 165.36C126.503 165.36 125.307 166.555 125.307 168.029C125.307 169.503 126.503 170.698 127.979 170.698Z" fill="#E6E6E6"/>
<path d="M141.505 170.698C142.981 170.698 144.177 169.503 144.177 168.029C144.177 166.555 142.981 165.36 141.505 165.36C140.029 165.36 138.833 166.555 138.833 168.029C138.833 169.503 140.029 170.698 141.505 170.698Z" fill="#E6E6E6"/>
<path d="M155.03 170.698C156.506 170.698 157.702 169.503 157.702 168.029C157.702 166.555 156.506 165.36 155.03 165.36C153.555 165.36 152.358 166.555 152.358 168.029C152.358 169.503 153.555 170.698 155.03 170.698Z" fill="#E6E6E6"/>
<path d="M168.556 170.698C170.032 170.698 171.228 169.503 171.228 168.029C171.228 166.555 170.032 165.36 168.556 165.36C167.081 165.36 165.884 166.555 165.884 168.029C165.884 169.503 167.081 170.698 168.556 170.698Z" fill="#E6E6E6"/>
<path d="M182.082 170.698C183.558 170.698 184.754 169.503 184.754 168.029C184.754 166.555 183.558 165.36 182.082 165.36C180.606 165.36 179.41 166.555 179.41 168.029C179.41 169.503 180.606 170.698 182.082 170.698Z" fill="#E6E6E6"/>
<path d="M195.608 170.698C197.084 170.698 198.28 169.503 198.28 168.029C198.28 166.555 197.084 165.36 195.608 165.36C194.132 165.36 192.936 166.555 192.936 168.029C192.936 169.503 194.132 170.698 195.608 170.698Z" fill="#E6E6E6"/>
<path d="M73.8757 184.378C75.3514 184.378 76.5477 183.183 76.5477 181.709C76.5477 180.235 75.3514 179.04 73.8757 179.04C72.3999 179.04 71.2036 180.235 71.2036 181.709C71.2036 183.183 72.3999 184.378 73.8757 184.378Z" fill="#E6E6E6"/>
<path d="M87.4013 184.378C88.877 184.378 90.0733 183.183 90.0733 181.709C90.0733 180.235 88.877 179.04 87.4013 179.04C85.9256 179.04 84.7292 180.235 84.7292 181.709C84.7292 183.183 85.9256 184.378 87.4013 184.378Z" fill="#E6E6E6"/>
<path d="M100.927 184.378C102.403 184.378 103.599 183.183 103.599 181.709C103.599 180.235 102.403 179.04 100.927 179.04C99.4514 179.04 98.2551 180.235 98.2551 181.709C98.2551 183.183 99.4514 184.378 100.927 184.378Z" fill="#E6E6E6"/>
<path d="M114.453 184.378C115.929 184.378 117.125 183.183 117.125 181.709C117.125 180.235 115.929 179.04 114.453 179.04C112.977 179.04 111.781 180.235 111.781 181.709C111.781 183.183 112.977 184.378 114.453 184.378Z" fill="#E6E6E6"/>
<path d="M127.979 184.378C129.455 184.378 130.651 183.183 130.651 181.709C130.651 180.235 129.455 179.04 127.979 179.04C126.503 179.04 125.307 180.235 125.307 181.709C125.307 183.183 126.503 184.378 127.979 184.378Z" fill="#E6E6E6"/>
<path d="M141.505 184.378C142.981 184.378 144.177 183.183 144.177 181.709C144.177 180.235 142.981 179.04 141.505 179.04C140.029 179.04 138.833 180.235 138.833 181.709C138.833 183.183 140.029 184.378 141.505 184.378Z" fill="#E6E6E6"/>
<path d="M155.03 184.378C156.506 184.378 157.702 183.183 157.702 181.709C157.702 180.235 156.506 179.04 155.03 179.04C153.555 179.04 152.358 180.235 152.358 181.709C152.358 183.183 153.555 184.378 155.03 184.378Z" fill="#E6E6E6"/>
<path d="M168.556 184.378C170.032 184.378 171.228 183.183 171.228 181.709C171.228 180.235 170.032 179.04 168.556 179.04C167.081 179.04 165.884 180.235 165.884 181.709C165.884 183.183 167.081 184.378 168.556 184.378Z" fill="#E6E6E6"/>
<path d="M182.082 184.378C183.558 184.378 184.754 183.183 184.754 181.709C184.754 180.235 183.558 179.04 182.082 179.04C180.606 179.04 179.41 180.235 179.41 181.709C179.41 183.183 180.606 184.378 182.082 184.378Z" fill="#E6E6E6"/>
<path d="M195.608 184.378C197.084 184.378 198.28 183.183 198.28 181.709C198.28 180.235 197.084 179.04 195.608 179.04C194.132 179.04 192.936 180.235 192.936 181.709C192.936 183.183 194.132 184.378 195.608 184.378Z" fill="#E6E6E6"/>
<path d="M73.8757 198.058C75.3514 198.058 76.5477 196.863 76.5477 195.389C76.5477 193.915 75.3514 192.72 73.8757 192.72C72.3999 192.72 71.2036 193.915 71.2036 195.389C71.2036 196.863 72.3999 198.058 73.8757 198.058Z" fill="#E6E6E6"/>
<path d="M87.4013 198.058C88.877 198.058 90.0733 196.863 90.0733 195.389C90.0733 193.915 88.877 192.72 87.4013 192.72C85.9256 192.72 84.7292 193.915 84.7292 195.389C84.7292 196.863 85.9256 198.058 87.4013 198.058Z" fill="#0F2852"/>
<path d="M100.927 198.058C102.403 198.058 103.599 196.863 103.599 195.389C103.599 193.915 102.403 192.72 100.927 192.72C99.4514 192.72 98.2551 193.915 98.2551 195.389C98.2551 196.863 99.4514 198.058 100.927 198.058Z" fill="#E6E6E6"/>
<path d="M114.453 198.058C115.929 198.058 117.125 196.863 117.125 195.389C117.125 193.915 115.929 192.72 114.453 192.72C112.977 192.72 111.781 193.915 111.781 195.389C111.781 196.863 112.977 198.058 114.453 198.058Z" fill="#E6E6E6"/>
<path d="M127.979 198.058C129.455 198.058 130.651 196.863 130.651 195.389C130.651 193.915 129.455 192.72 127.979 192.72C126.503 192.72 125.307 193.915 125.307 195.389C125.307 196.863 126.503 198.058 127.979 198.058Z" fill="#E6E6E6"/>
<path d="M141.505 198.058C142.981 198.058 144.177 196.863 144.177 195.389C144.177 193.915 142.981 192.72 141.505 192.72C140.029 192.72 138.833 193.915 138.833 195.389C138.833 196.863 140.029 198.058 141.505 198.058Z" fill="#E6E6E6"/>
<path d="M155.03 198.058C156.506 198.058 157.702 196.863 157.702 195.389C157.702 193.915 156.506 192.72 155.03 192.72C153.555 192.72 152.358 193.915 152.358 195.389C152.358 196.863 153.555 198.058 155.03 198.058Z" fill="#E6E6E6"/>
<path d="M168.556 198.058C170.032 198.058 171.228 196.863 171.228 195.389C171.228 193.915 170.032 192.72 168.556 192.72C167.081 192.72 165.884 193.915 165.884 195.389C165.884 196.863 167.081 198.058 168.556 198.058Z" fill="#E6E6E6"/>
<path d="M182.082 198.058C183.558 198.058 184.754 196.863 184.754 195.389C184.754 193.915 183.558 192.72 182.082 192.72C180.606 192.72 179.41 193.915 179.41 195.389C179.41 196.863 180.606 198.058 182.082 198.058Z" fill="#E6E6E6"/>
<path d="M195.608 198.058C197.084 198.058 198.28 196.863 198.28 195.389C198.28 193.915 197.084 192.72 195.608 192.72C194.132 192.72 192.936 193.915 192.936 195.389C192.936 196.863 194.132 198.058 195.608 198.058Z" fill="#E6E6E6"/>
<path d="M73.8757 211.738C75.3514 211.738 76.5477 210.543 76.5477 209.069C76.5477 207.595 75.3514 206.4 73.8757 206.4C72.3999 206.4 71.2036 207.595 71.2036 209.069C71.2036 210.543 72.3999 211.738 73.8757 211.738Z" fill="#E6E6E6"/>
<path d="M87.4013 211.738C88.877 211.738 90.0733 210.543 90.0733 209.069C90.0733 207.595 88.877 206.4 87.4013 206.4C85.9256 206.4 84.7292 207.595 84.7292 209.069C84.7292 210.543 85.9256 211.738 87.4013 211.738Z" fill="#E6E6E6"/>
<path d="M100.927 211.738C102.403 211.738 103.599 210.543 103.599 209.069C103.599 207.595 102.403 206.4 100.927 206.4C99.4514 206.4 98.2551 207.595 98.2551 209.069C98.2551 210.543 99.4514 211.738 100.927 211.738Z" fill="#E6E6E6"/>
<path d="M114.453 211.738C115.929 211.738 117.125 210.543 117.125 209.069C117.125 207.595 115.929 206.4 114.453 206.4C112.977 206.4 111.781 207.595 111.781 209.069C111.781 210.543 112.977 211.738 114.453 211.738Z" fill="#E6E6E6"/>
<path d="M127.979 211.738C129.455 211.738 130.651 210.543 130.651 209.069C130.651 207.595 129.455 206.4 127.979 206.4C126.503 206.4 125.307 207.595 125.307 209.069C125.307 210.543 126.503 211.738 127.979 211.738Z" fill="#E6E6E6"/>
<path d="M141.505 211.738C142.981 211.738 144.177 210.543 144.177 209.069C144.177 207.595 142.981 206.4 141.505 206.4C140.029 206.4 138.833 207.595 138.833 209.069C138.833 210.543 140.029 211.738 141.505 211.738Z" fill="#E6E6E6"/>
<path d="M155.03 211.738C156.506 211.738 157.702 210.543 157.702 209.069C157.702 207.595 156.506 206.4 155.03 206.4C153.555 206.4 152.358 207.595 152.358 209.069C152.358 210.543 153.555 211.738 155.03 211.738Z" fill="#E6E6E6"/>
<path d="M168.556 211.738C170.032 211.738 171.228 210.543 171.228 209.069C171.228 207.595 170.032 206.4 168.556 206.4C167.081 206.4 165.884 207.595 165.884 209.069C165.884 210.543 167.081 211.738 168.556 211.738Z" fill="#E6E6E6"/>
<path d="M182.082 211.738C183.558 211.738 184.754 210.543 184.754 209.069C184.754 207.595 183.558 206.4 182.082 206.4C180.606 206.4 179.41 207.595 179.41 209.069C179.41 210.543 180.606 211.738 182.082 211.738Z" fill="#E6E6E6"/>
<path d="M195.608 211.738C197.084 211.738 198.28 210.543 198.28 209.069C198.28 207.595 197.084 206.4 195.608 206.4C194.132 206.4 192.936 207.595 192.936 209.069C192.936 210.543 194.132 211.738 195.608 211.738Z" fill="#E6E6E6"/>
<path d="M73.8757 225.418C75.3514 225.418 76.5477 224.223 76.5477 222.749C76.5477 221.275 75.3514 220.08 73.8757 220.08C72.3999 220.08 71.2036 221.275 71.2036 222.749C71.2036 224.223 72.3999 225.418 73.8757 225.418Z" fill="#E6E6E6"/>
<path d="M87.4013 225.418C88.877 225.418 90.0733 224.223 90.0733 222.749C90.0733 221.275 88.877 220.08 87.4013 220.08C85.9256 220.08 84.7292 221.275 84.7292 222.749C84.7292 224.223 85.9256 225.418 87.4013 225.418Z" fill="#E6E6E6"/>
<path d="M100.927 225.418C102.403 225.418 103.599 224.223 103.599 222.749C103.599 221.275 102.403 220.08 100.927 220.08C99.4514 220.08 98.2551 221.275 98.2551 222.749C98.2551 224.223 99.4514 225.418 100.927 225.418Z" fill="#0F2852"/>
<path d="M114.453 225.418C115.929 225.418 117.125 224.223 117.125 222.749C117.125 221.275 115.929 220.08 114.453 220.08C112.977 220.08 111.781 221.275 111.781 222.749C111.781 224.223 112.977 225.418 114.453 225.418Z" fill="#E6E6E6"/>
<path d="M127.979 225.418C129.455 225.418 130.651 224.223 130.651 222.749C130.651 221.275 129.455 220.08 127.979 220.08C126.503 220.08 125.307 221.275 125.307 222.749C125.307 224.223 126.503 225.418 127.979 225.418Z" fill="#E6E6E6"/>
<path d="M141.505 225.418C142.981 225.418 144.177 224.223 144.177 222.749C144.177 221.275 142.981 220.08 141.505 220.08C140.029 220.08 138.833 221.275 138.833 222.749C138.833 224.223 140.029 225.418 141.505 225.418Z" fill="#E6E6E6"/>
<path d="M155.03 225.418C156.506 225.418 157.702 224.223 157.702 222.749C157.702 221.275 156.506 220.08 155.03 220.08C153.555 220.08 152.358 221.275 152.358 222.749C152.358 224.223 153.555 225.418 155.03 225.418Z" fill="#E6E6E6"/>
<path d="M168.556 225.418C170.032 225.418 171.228 224.223 171.228 222.749C171.228 221.275 170.032 220.08 168.556 220.08C167.081 220.08 165.884 221.275 165.884 222.749C165.884 224.223 167.081 225.418 168.556 225.418Z" fill="#E6E6E6"/>
<path d="M182.082 225.418C183.558 225.418 184.754 224.223 184.754 222.749C184.754 221.275 183.558 220.08 182.082 220.08C180.606 220.08 179.41 221.275 179.41 222.749C179.41 224.223 180.606 225.418 182.082 225.418Z" fill="#E6E6E6"/>
<path d="M195.608 225.418C197.084 225.418 198.28 224.223 198.28 222.749C198.28 221.275 197.084 220.08 195.608 220.08C194.132 220.08 192.936 221.275 192.936 222.749C192.936 224.223 194.132 225.418 195.608 225.418Z" fill="#E6E6E6"/>
<path d="M73.8757 239.097C75.3514 239.097 76.5477 237.903 76.5477 236.428C76.5477 234.954 75.3514 233.76 73.8757 233.76C72.3999 233.76 71.2036 234.954 71.2036 236.428C71.2036 237.903 72.3999 239.097 73.8757 239.097Z" fill="#E6E6E6"/>
<path d="M87.4013 239.097C88.877 239.097 90.0733 237.903 90.0733 236.428C90.0733 234.954 88.877 233.76 87.4013 233.76C85.9256 233.76 84.7292 234.954 84.7292 236.428C84.7292 237.903 85.9256 239.097 87.4013 239.097Z" fill="#E6E6E6"/>
<path d="M100.927 239.097C102.403 239.097 103.599 237.903 103.599 236.428C103.599 234.954 102.403 233.76 100.927 233.76C99.4514 233.76 98.2551 234.954 98.2551 236.428C98.2551 237.903 99.4514 239.097 100.927 239.097Z" fill="#E6E6E6"/>
<path d="M114.453 239.097C115.929 239.097 117.125 237.903 117.125 236.428C117.125 234.954 115.929 233.76 114.453 233.76C112.977 233.76 111.781 234.954 111.781 236.428C111.781 237.903 112.977 239.097 114.453 239.097Z" fill="#E6E6E6"/>
<path d="M127.979 239.097C129.455 239.097 130.651 237.903 130.651 236.428C130.651 234.954 129.455 233.76 127.979 233.76C126.503 233.76 125.307 234.954 125.307 236.428C125.307 237.903 126.503 239.097 127.979 239.097Z" fill="#E6E6E6"/>
<path d="M141.505 239.097C142.981 239.097 144.177 237.903 144.177 236.428C144.177 234.954 142.981 233.76 141.505 233.76C140.029 233.76 138.833 234.954 138.833 236.428C138.833 237.903 140.029 239.097 141.505 239.097Z" fill="#E6E6E6"/>
<path d="M155.03 239.097C156.506 239.097 157.702 237.903 157.702 236.428C157.702 234.954 156.506 233.76 155.03 233.76C153.555 233.76 152.358 234.954 152.358 236.428C152.358 237.903 153.555 239.097 155.03 239.097Z" fill="#E6E6E6"/>
<path d="M168.556 239.097C170.032 239.097 171.228 237.903 171.228 236.428C171.228 234.954 170.032 233.76 168.556 233.76C167.081 233.76 165.884 234.954 165.884 236.428C165.884 237.903 167.081 239.097 168.556 239.097Z" fill="#E6E6E6"/>
<path d="M182.082 239.097C183.558 239.097 184.754 237.903 184.754 236.428C184.754 234.954 183.558 233.76 182.082 233.76C180.606 233.76 179.41 234.954 179.41 236.428C179.41 237.903 180.606 239.097 182.082 239.097Z" fill="#E6E6E6"/>
<path d="M195.608 239.097C197.084 239.097 198.28 237.903 198.28 236.428C198.28 234.954 197.084 233.76 195.608 233.76C194.132 233.76 192.936 234.954 192.936 236.428C192.936 237.903 194.132 239.097 195.608 239.097Z" fill="#E6E6E6"/>
<path d="M73.8757 252.777C75.3514 252.777 76.5477 251.582 76.5477 250.108C76.5477 248.634 75.3514 247.439 73.8757 247.439C72.3999 247.439 71.2036 248.634 71.2036 250.108C71.2036 251.582 72.3999 252.777 73.8757 252.777Z" fill="#E6E6E6"/>
<path d="M87.4013 252.777C88.877 252.777 90.0733 251.582 90.0733 250.108C90.0733 248.634 88.877 247.439 87.4013 247.439C85.9256 247.439 84.7292 248.634 84.7292 250.108C84.7292 251.582 85.9256 252.777 87.4013 252.777Z" fill="#E6E6E6"/>
<path d="M100.927 252.777C102.403 252.777 103.599 251.582 103.599 250.108C103.599 248.634 102.403 247.439 100.927 247.439C99.4514 247.439 98.2551 248.634 98.2551 250.108C98.2551 251.582 99.4514 252.777 100.927 252.777Z" fill="#E6E6E6"/>
<path d="M114.453 252.777C115.929 252.777 117.125 251.582 117.125 250.108C117.125 248.634 115.929 247.439 114.453 247.439C112.977 247.439 111.781 248.634 111.781 250.108C111.781 251.582 112.977 252.777 114.453 252.777Z" fill="#E6E6E6"/>
<path d="M127.979 252.777C129.455 252.777 130.651 251.582 130.651 250.108C130.651 248.634 129.455 247.439 127.979 247.439C126.503 247.439 125.307 248.634 125.307 250.108C125.307 251.582 126.503 252.777 127.979 252.777Z" fill="#E6E6E6"/>
<path d="M141.505 252.777C142.981 252.777 144.177 251.582 144.177 250.108C144.177 248.634 142.981 247.439 141.505 247.439C140.029 247.439 138.833 248.634 138.833 250.108C138.833 251.582 140.029 252.777 141.505 252.777Z" fill="#E6E6E6"/>
<path d="M155.03 252.777C156.506 252.777 157.702 251.582 157.702 250.108C157.702 248.634 156.506 247.439 155.03 247.439C153.555 247.439 152.358 248.634 152.358 250.108C152.358 251.582 153.555 252.777 155.03 252.777Z" fill="#E6E6E6"/>
<path d="M168.556 252.777C170.032 252.777 171.228 251.582 171.228 250.108C171.228 248.634 170.032 247.439 168.556 247.439C167.081 247.439 165.884 248.634 165.884 250.108C165.884 251.582 167.081 252.777 168.556 252.777Z" fill="#E6E6E6"/>
<path d="M182.082 252.777C183.558 252.777 184.754 251.582 184.754 250.108C184.754 248.634 183.558 247.439 182.082 247.439C180.606 247.439 179.41 248.634 179.41 250.108C179.41 251.582 180.606 252.777 182.082 252.777Z" fill="#E6E6E6"/>
<path d="M195.608 252.777C197.084 252.777 198.28 251.582 198.28 250.108C198.28 248.634 197.084 247.439 195.608 247.439C194.132 247.439 192.936 248.634 192.936 250.108C192.936 251.582 194.132 252.777 195.608 252.777Z" fill="#E6E6E6"/>
<path d="M73.8757 266.457C75.3514 266.457 76.5477 265.262 76.5477 263.788C76.5477 262.314 75.3514 261.119 73.8757 261.119C72.3999 261.119 71.2036 262.314 71.2036 263.788C71.2036 265.262 72.3999 266.457 73.8757 266.457Z" fill="#E6E6E6"/>
<path d="M87.4013 266.457C88.877 266.457 90.0733 265.262 90.0733 263.788C90.0733 262.314 88.877 261.119 87.4013 261.119C85.9256 261.119 84.7292 262.314 84.7292 263.788C84.7292 265.262 85.9256 266.457 87.4013 266.457Z" fill="#E6E6E6"/>
<path d="M100.927 266.457C102.403 266.457 103.599 265.262 103.599 263.788C103.599 262.314 102.403 261.119 100.927 261.119C99.4514 261.119 98.2551 262.314 98.2551 263.788C98.2551 265.262 99.4514 266.457 100.927 266.457Z" fill="#E6E6E6"/>
<path d="M114.453 266.457C115.929 266.457 117.125 265.262 117.125 263.788C117.125 262.314 115.929 261.119 114.453 261.119C112.977 261.119 111.781 262.314 111.781 263.788C111.781 265.262 112.977 266.457 114.453 266.457Z" fill="#E6E6E6"/>
<path d="M127.979 266.457C129.455 266.457 130.651 265.262 130.651 263.788C130.651 262.314 129.455 261.119 127.979 261.119C126.503 261.119 125.307 262.314 125.307 263.788C125.307 265.262 126.503 266.457 127.979 266.457Z" fill="#E6E6E6"/>
<path d="M141.505 266.457C142.981 266.457 144.177 265.262 144.177 263.788C144.177 262.314 142.981 261.119 141.505 261.119C140.029 261.119 138.833 262.314 138.833 263.788C138.833 265.262 140.029 266.457 141.505 266.457Z" fill="#E6E6E6"/>
<path d="M155.03 266.457C156.506 266.457 157.702 265.262 157.702 263.788C157.702 262.314 156.506 261.119 155.03 261.119C153.555 261.119 152.358 262.314 152.358 263.788C152.358 265.262 153.555 266.457 155.03 266.457Z" fill="#E6E6E6"/>
<path d="M168.556 266.457C170.032 266.457 171.228 265.262 171.228 263.788C171.228 262.314 170.032 261.119 168.556 261.119C167.081 261.119 165.884 262.314 165.884 263.788C165.884 265.262 167.081 266.457 168.556 266.457Z" fill="#E6E6E6"/>
<path d="M182.082 266.457C183.558 266.457 184.754 265.262 184.754 263.788C184.754 262.314 183.558 261.119 182.082 261.119C180.606 261.119 179.41 262.314 179.41 263.788C179.41 265.262 180.606 266.457 182.082 266.457Z" fill="#E6E6E6"/>
<path d="M195.608 266.457C197.084 266.457 198.28 265.262 198.28 263.788C198.28 262.314 197.084 261.119 195.608 261.119C194.132 261.119 192.936 262.314 192.936 263.788C192.936 265.262 194.132 266.457 195.608 266.457Z" fill="#E6E6E6"/>
<path d="M170.069 243.914L201.782 188.407H138.323L106.576 243.331L138.323 298.255H201.816L233.503 243.434L170.069 243.914Z" fill="#3F3D56"/>
<path d="M241.379 238.772L241.439 238.669L209.692 183.745H209.658L177.946 239.252L241.379 238.772Z" fill="#0F2852"/>
<path d="M287.307 185.999C286.79 185.396 286.531 184.512 286.531 183.348C286.531 182.195 286.79 181.316 287.307 180.713C287.573 180.41 287.905 180.171 288.277 180.014C288.649 179.857 289.052 179.786 289.455 179.807C289.862 179.786 290.268 179.856 290.645 180.013C291.021 180.17 291.357 180.409 291.628 180.713C292.15 181.316 292.412 182.195 292.412 183.348C292.412 184.512 292.151 185.396 291.628 185.999C291.357 186.303 291.021 186.542 290.645 186.699C290.268 186.856 289.862 186.926 289.455 186.905C289.052 186.926 288.649 186.855 288.277 186.698C287.905 186.541 287.573 186.302 287.307 185.999ZM290.386 185.061C290.62 184.522 290.72 183.934 290.68 183.348C290.719 182.769 290.615 182.189 290.378 181.659C290.29 181.492 290.157 181.354 289.994 181.26C289.83 181.166 289.643 181.121 289.455 181.129C289.27 181.122 289.087 181.168 288.928 181.262C288.768 181.356 288.64 181.494 288.557 181.659C288.326 182.191 288.225 182.77 288.262 183.348C288.224 183.931 288.325 184.516 288.557 185.053C288.639 185.218 288.768 185.356 288.928 185.45C289.087 185.544 289.27 185.591 289.455 185.583C289.644 185.594 289.832 185.551 289.997 185.458C290.162 185.366 290.297 185.228 290.386 185.061ZM289.341 191.588L296.071 179.97H297.884L291.138 191.588H289.341ZM295.589 190.796C295.072 190.193 294.813 189.303 294.813 188.129C294.813 186.976 295.072 186.1 295.589 185.502C295.873 185.217 296.211 184.991 296.582 184.838C296.953 184.684 297.352 184.604 297.754 184.604C298.156 184.604 298.554 184.684 298.925 184.838C299.297 184.991 299.634 185.217 299.918 185.502C300.435 186.1 300.694 186.981 300.694 188.145C300.694 189.309 300.435 190.193 299.918 190.796C299.636 191.083 299.299 191.311 298.927 191.467C298.555 191.622 298.157 191.702 297.754 191.702C297.351 191.702 296.952 191.622 296.58 191.467C296.209 191.311 295.872 191.083 295.589 190.796ZM298.668 189.85C298.9 189.313 299.001 188.729 298.962 188.145C299.001 187.566 298.897 186.986 298.66 186.456C298.569 186.295 298.437 186.161 298.277 186.068C298.117 185.975 297.935 185.926 297.749 185.926C297.564 185.926 297.382 185.975 297.222 186.068C297.062 186.161 296.93 186.295 296.839 186.456C296.608 186.988 296.507 187.567 296.545 188.145C296.506 188.729 296.607 189.313 296.839 189.85C296.931 190.011 297.064 190.145 297.225 190.238C297.385 190.331 297.568 190.38 297.753 190.38C297.939 190.38 298.122 190.331 298.282 190.238C298.443 190.145 298.576 190.011 298.668 189.85Z" fill="#3F3D56"/>
<path d="M59.776 286.214C59.2587 285.611 59 284.727 59 283.563C59 282.41 59.2587 281.531 59.776 280.928C60.0425 280.625 60.3741 280.386 60.7461 280.229C61.118 280.072 61.5207 280.001 61.9239 280.022C62.3309 280.001 62.7374 280.071 63.1135 280.228C63.4896 280.385 63.8257 280.624 64.0969 280.928C64.6193 281.531 64.8807 282.41 64.8808 283.563C64.8808 284.727 64.6195 285.611 64.0969 286.214C63.8257 286.518 63.4897 286.757 63.1135 286.914C62.7374 287.071 62.3309 287.141 61.9239 287.12C61.5207 287.141 61.118 287.07 60.746 286.913C60.3741 286.756 60.0424 286.517 59.776 286.214ZM62.8554 285.276C63.0886 284.737 63.1893 284.149 63.1494 283.563C63.1878 282.984 63.0839 282.404 62.8469 281.874C62.7593 281.707 62.626 281.569 62.4625 281.475C62.2991 281.381 62.1123 281.335 61.9239 281.344C61.739 281.336 61.5559 281.383 61.3966 281.477C61.2373 281.571 61.1085 281.709 61.0257 281.874C60.7947 282.406 60.6939 282.985 60.7314 283.563C60.693 284.146 60.7938 284.731 61.0257 285.268C61.1085 285.433 61.2372 285.571 61.3965 285.665C61.5559 285.759 61.739 285.805 61.9239 285.798C62.1129 285.809 62.301 285.766 62.466 285.673C62.6311 285.581 62.7662 285.443 62.8554 285.276ZM61.81 291.803L68.54 280.185H70.3532L63.6066 291.803H61.81ZM68.0583 291.011C67.5407 290.408 67.282 289.518 67.2823 288.344C67.2823 287.191 67.5409 286.315 68.0583 285.717C68.3422 285.432 68.6796 285.206 69.051 285.052C69.4224 284.898 69.8206 284.819 70.2227 284.819C70.6248 284.819 71.023 284.898 71.3944 285.052C71.7659 285.206 72.1032 285.432 72.3871 285.717C72.9042 286.315 73.1628 287.196 73.1631 288.36C73.1631 289.524 72.9045 290.408 72.3871 291.011C72.1045 291.298 71.7676 291.526 71.396 291.681C71.0244 291.837 70.6256 291.917 70.2227 291.917C69.8198 291.917 69.421 291.837 69.0494 291.681C68.6778 291.526 68.3409 291.298 68.0583 291.011ZM71.1371 290.065C71.369 289.528 71.4698 288.944 71.4314 288.36C71.4697 287.781 71.366 287.201 71.1292 286.671C71.0379 286.51 70.9056 286.376 70.7456 286.283C70.5855 286.19 70.4036 286.141 70.2184 286.141C70.0332 286.141 69.8513 286.19 69.6913 286.283C69.5313 286.376 69.3989 286.51 69.3077 286.671C69.077 287.203 68.9762 287.782 69.0137 288.36C68.9754 288.944 69.0761 289.528 69.3077 290.065C69.3998 290.226 69.533 290.36 69.6936 290.453C69.8543 290.546 70.0367 290.595 70.2224 290.595C70.4082 290.595 70.5906 290.546 70.7512 290.453C70.9119 290.36 71.045 290.226 71.1371 290.065Z" fill="#3F3D56"/>
<path d="M211.293 219.33L210.882 219.221L219.846 185.542H271.835V185.967H220.172L211.293 219.33Z" fill="#2F2E41"/>
<path d="M276.083 190.21C275.201 190.21 274.338 189.949 273.605 189.459C272.871 188.969 272.3 188.274 271.962 187.46C271.624 186.645 271.536 185.75 271.708 184.885C271.88 184.021 272.305 183.227 272.929 182.604C273.553 181.981 274.348 181.557 275.213 181.385C276.078 181.213 276.975 181.301 277.79 181.638C278.605 181.976 279.302 182.547 279.792 183.279C280.282 184.012 280.544 184.873 280.544 185.755C280.542 186.936 280.072 188.068 279.236 188.903C278.399 189.739 277.266 190.209 276.083 190.21ZM276.083 181.724C275.285 181.724 274.505 181.96 273.841 182.403C273.177 182.846 272.66 183.475 272.355 184.212C272.049 184.949 271.969 185.759 272.125 186.541C272.281 187.323 272.665 188.041 273.229 188.605C273.794 189.169 274.513 189.553 275.296 189.708C276.079 189.864 276.89 189.784 277.627 189.479C278.365 189.174 278.995 188.657 279.439 187.994C279.882 187.331 280.119 186.552 280.119 185.755C280.118 184.686 279.692 183.661 278.935 182.906C278.179 182.15 277.153 181.725 276.083 181.724Z" fill="#2F2E41"/>
<path d="M276.083 187.452C277.021 187.452 277.782 186.692 277.782 185.755C277.782 184.817 277.021 184.057 276.083 184.057C275.145 184.057 274.384 184.817 274.384 185.755C274.384 186.692 275.145 187.452 276.083 187.452Z" fill="#0F2852"/>
<path d="M145.656 252.394L146.067 252.503L137.104 286.181H85.1145V285.757H136.777L145.656 252.394Z" fill="#2F2E41"/>
<path d="M80.8665 281.514C81.7487 281.514 82.611 281.775 83.3446 282.265C84.0781 282.755 84.6498 283.45 84.9874 284.265C85.325 285.079 85.4133 285.974 85.2412 286.839C85.0691 287.703 84.6443 288.497 84.0205 289.12C83.3967 289.743 82.6019 290.167 81.7367 290.339C80.8714 290.511 79.9746 290.423 79.1595 290.086C78.3445 289.748 77.6478 289.177 77.1577 288.445C76.6676 287.712 76.406 286.851 76.406 285.969C76.4073 284.788 76.8777 283.656 77.7139 282.821C78.5501 281.985 79.6839 281.516 80.8665 281.514ZM80.8665 290.001C81.6646 290.001 82.4449 289.764 83.1085 289.321C83.7722 288.878 84.2895 288.249 84.5949 287.512C84.9004 286.776 84.9803 285.965 84.8246 285.183C84.6688 284.401 84.2845 283.683 83.7201 283.119C83.1557 282.555 82.4366 282.171 81.6538 282.016C80.8709 281.86 80.0595 281.94 79.3221 282.245C78.5847 282.55 77.9544 283.067 77.5109 283.73C77.0675 284.393 76.8308 285.172 76.8308 285.969C76.832 287.038 77.2576 288.063 78.0142 288.819C78.7707 289.574 79.7965 289.999 80.8665 290.001Z" fill="#2F2E41"/>
<path d="M80.8665 287.667C81.8049 287.667 82.5657 286.907 82.5657 285.969C82.5657 285.032 81.8049 284.272 80.8665 284.272C79.928 284.272 79.1672 285.032 79.1672 285.969C79.1672 286.907 79.928 287.667 80.8665 287.667Z" fill="#0F2852"/>
<path d="M314.77 353.142H308.32V361.903H314.77V353.142Z" fill="#A0616A"/>
<path d="M347.534 353.142H341.084V361.903H347.534V353.142Z" fill="#A0616A"/>
<path d="M352.009 280.473C351.456 280.473 350.91 280.353 350.408 280.122C349.906 279.891 349.46 279.554 349.1 279.135C348.741 278.715 348.477 278.223 348.326 277.692C348.176 277.16 348.142 276.603 348.228 276.057L349.284 269.331L349.598 267.33H354.5L354.758 270.165L355.779 275.991C355.875 276.54 355.85 277.104 355.705 277.643C355.559 278.181 355.298 278.682 354.939 279.109C354.58 279.536 354.131 279.879 353.625 280.115C353.119 280.351 352.567 280.473 352.009 280.473Z" fill="#A0616A"/>
<path d="M304.023 279.699C303.47 279.699 302.924 279.58 302.422 279.349C301.919 279.118 301.473 278.781 301.114 278.362C300.755 277.942 300.491 277.45 300.34 276.918C300.19 276.387 300.156 275.83 300.242 275.284L301.298 268.558L301.612 266.557H306.514L306.772 269.392L307.793 275.218C307.889 275.767 307.864 276.331 307.718 276.87C307.573 277.408 307.312 277.909 306.953 278.336C306.594 278.763 306.145 279.106 305.639 279.342C305.133 279.577 304.581 279.699 304.023 279.699Z" fill="#A0616A"/>
<path d="M348.308 354.946L340.568 354.688L327.927 278.411L315.285 354.946L307.804 354.688L305.74 266.557H349.082L348.308 354.946Z" fill="#2F2E41"/>
<path d="M314.608 367.986C308.041 368.176 302.901 366.403 299.531 362.194C299.177 361.75 298.967 361.21 298.929 360.644C298.891 360.078 299.028 359.514 299.32 359.028C299.596 358.569 299.998 358.199 300.479 357.963C300.959 357.727 301.498 357.635 302.03 357.697L304.164 357.946L308.607 355.728C307.698 361.008 310.171 361.107 316.085 359.338L317.15 364.792C317.225 365.173 317.217 365.565 317.125 365.942C317.033 366.32 316.86 366.672 316.618 366.976C316.377 367.28 316.072 367.528 315.725 367.702C315.377 367.877 314.996 367.974 314.608 367.986Z" fill="#2F2E41"/>
<path d="M347.372 367.986C340.806 368.176 335.666 366.403 332.295 362.194C331.941 361.75 331.731 361.209 331.693 360.643C331.656 360.078 331.792 359.514 332.085 359.027C332.36 358.569 332.762 358.199 333.243 357.963C333.724 357.727 334.262 357.634 334.794 357.696L336.928 357.946L341.338 356.087C340.429 361.367 342.935 361.107 348.849 359.337L349.915 364.792C349.99 365.173 349.981 365.565 349.889 365.942C349.797 366.319 349.625 366.672 349.383 366.976C349.141 367.28 348.836 367.527 348.489 367.702C348.142 367.876 347.761 367.973 347.372 367.986Z" fill="#2F2E41"/>
<path d="M325.347 185.899C331.046 185.899 335.667 181.284 335.667 175.592C335.667 169.899 331.046 165.284 325.347 165.284C319.648 165.284 315.028 169.899 315.028 175.592C315.028 181.284 319.648 185.899 325.347 185.899Z" fill="#A0616A"/>
<path d="M335.667 194.403L324.573 194.919L324.057 183.322L333.603 179.715L335.667 194.403Z" fill="#A0616A"/>
<path d="M351.662 270.165C336.534 267.306 319.299 266.281 307.804 270.165L311.416 194.403L323.541 190.796L324.444 189.378L334.635 187.703L339.537 189.249L342.632 193.888L356.048 201.361C349.444 226.877 347.488 250.059 351.662 270.165Z" fill="#2F2E41"/>
<path d="M358.886 269.65L347.792 268.361C350.105 257.108 349.159 242.47 349.727 227.774C350.088 218.454 352.023 209.971 352.694 199.557C356.901 200.653 359.079 204.555 359.105 209.154C359.223 230.965 361.286 251.402 358.886 269.65Z" fill="#2F2E41"/>
<path d="M310.642 268.619L299.806 267.846L306.256 231.253L308.439 200.803C308.1 196.362 310.476 193.782 313.996 193.63C321.684 202.724 322.575 215.257 320.187 229.449L310.642 268.619Z" fill="#2F2E41"/>
<path d="M328.694 183.17L327.363 179.386C326.617 177.263 325.306 175.383 323.572 173.946C321.838 172.509 319.745 171.571 317.518 171.231L309.177 171.04L311.493 167.323C312.61 165.53 314.207 164.086 316.103 163.153C318 162.221 320.12 161.838 322.223 162.047L330.559 162.877C332.543 163.075 334.368 164.048 335.637 165.586C336.905 167.123 337.513 169.099 337.328 171.082L336.563 179.27C336.481 180.146 336.177 180.986 335.679 181.71C335.181 182.435 334.505 183.021 333.717 183.412C332.929 183.802 332.053 183.985 331.174 183.943C330.295 183.901 329.441 183.635 328.694 183.17Z" fill="#2F2E41"/>
</g>
<rect x="-0.5" y="0.5" width="50" height="48" rx="3.5" transform="matrix(-1 0 0 1 50 0)" stroke="#0F2852"/>
<defs>
<clipPath id="clip0_124_6">
<rect width="307" height="230" fill="white" transform="translate(59 138)"/>
</clipPath>
</defs>
</svg>
