<svg width="420" height="549" viewBox="0 0 420 549" fill="none" xmlns="http://www.w3.org/2000/svg">
<rect width="51" height="49" rx="4" transform="matrix(-1 0 0 1 420 500)" fill="#0F2852"/>
<rect x="20" y="20" width="380" height="509" rx="8" fill="#F7F8F8"/>
<g clip-path="url(#clip0_5_222)">
<path d="M170.118 181.677C183.988 172.708 203.091 176.193 216.604 185.697C221.013 188.84 225.064 192.462 228.681 196.495C230.791 198.814 232.791 201.248 234.704 203.766C235.175 204.384 235.644 205.008 236.104 205.638C236.419 206.064 236.731 206.493 237.04 206.925C240.92 212.328 244.477 218.013 247.958 223.646C256.65 237.708 265.569 252.189 278.813 262.062C281.541 264.095 285.348 265.927 288.144 263.985C290.569 262.299 290.673 258.753 290.121 255.847C288.069 245.081 280.665 236.159 272.799 228.543C264.934 220.926 256.227 213.944 250.283 204.741C244.34 195.538 241.625 183.252 246.831 173.613C251.317 165.307 260.969 160.648 270.391 160.431C279.812 160.216 288.965 163.886 296.936 168.925C304.906 173.966 311.914 180.362 319.228 186.318C323.637 189.911 329.793 193.476 334.598 190.434C338.656 187.863 338.973 181.691 336.554 177.536C334.135 173.38 329.818 170.769 325.68 168.333C312.83 160.769 299.981 153.206 287.131 145.643C283.189 143.325 279.16 140.932 276.25 137.397C273.339 133.864 271.724 128.899 273.328 124.609C274.911 120.381 279.332 117.696 283.804 117.136C288.274 116.577 292.782 117.819 296.963 119.501C312.631 125.806 349.525 167.058 359.358 174.11C365.677 178.64 372.315 184.375 372.954 192.133C373.75 201.792 364.159 209.808 354.532 210.745C344.906 211.685 335.577 207.491 326.977 203.057C318.376 198.623 309.599 193.734 299.945 193.118C290.291 192.503 279.461 197.674 277.172 207.091C275.182 215.285 280.241 223.741 286.831 228.984C291.99 233.089 298.043 235.823 303.891 238.897C305.515 239.748 307.122 240.628 308.689 241.568C312.701 243.982 316.452 246.807 319.879 249.999C323.478 253.344 326.708 257.067 329.515 261.103C331.754 264.318 333.708 267.724 335.354 271.282C335.605 271.825 335.849 272.376 336.085 272.935C336.309 273.469 336.526 274.01 336.731 274.556C339.415 281.641 340.461 289.581 337.032 296.195C333.612 302.791 326.204 306.696 318.807 307.238C314.528 307.494 310.24 306.926 306.174 305.566C303.184 304.592 300.29 303.346 297.528 301.842C284.721 294.953 274.581 284.03 265.322 272.801C256.064 261.573 247.347 249.75 236.356 240.219C225.367 230.685 211.595 223.478 197.059 223.587C182.523 223.695 167.539 232.569 163.41 246.535C157.393 236.145 153.324 224.3 153.861 212.3C154.398 200.3 160.046 188.192 170.118 181.677Z" fill="#3F3D56"/>
<path d="M226.511 220.5C227.393 220.5 228.108 219.783 228.108 218.899C228.108 218.016 227.393 217.299 226.511 217.299C225.629 217.299 224.914 218.016 224.914 218.899C224.914 219.783 225.629 220.5 226.511 220.5Z" fill="#0F2852"/>
<path d="M166.328 222.788C167.691 222.788 168.797 221.68 168.797 220.314C168.797 218.947 167.691 217.839 166.328 217.839C164.964 217.839 163.859 218.947 163.859 220.314C163.859 221.68 164.964 222.788 166.328 222.788Z" fill="#FF6584"/>
<path d="M344.784 200.896C345.288 200.896 345.696 200.487 345.696 199.982C345.696 199.477 345.288 199.068 344.784 199.068C344.28 199.068 343.872 199.477 343.872 199.982C343.872 200.487 344.28 200.896 344.784 200.896Z" fill="#FF6584"/>
<path d="M326.325 151.764C326.829 151.764 327.238 151.355 327.238 150.85C327.238 150.345 326.829 149.936 326.325 149.936C325.822 149.936 325.413 150.345 325.413 150.85C325.413 151.355 325.822 151.764 326.325 151.764Z" fill="#FF6584"/>
<path d="M302.852 241.026C303.111 240.276 303.46 239.561 303.891 238.897C305.515 239.748 307.122 240.628 308.689 241.568C312.701 243.982 316.451 246.807 319.879 249.999C318.5 251.878 316.493 253.198 314.225 253.721C311.956 254.244 309.575 253.935 307.515 252.849C305.455 251.764 303.851 249.973 302.995 247.804C302.14 245.635 302.089 243.23 302.852 241.026L302.852 241.026Z" fill="#FF6584"/>
<path d="M186.505 211.275C187.021 211.275 187.438 210.856 187.438 210.34C187.438 209.824 187.021 209.405 186.505 209.405C185.99 209.405 185.572 209.824 185.572 210.34C185.572 210.856 185.99 211.275 186.505 211.275Z" fill="#F0F0F0"/>
<path d="M300.815 142.102C301.33 142.102 301.748 141.683 301.748 141.167C301.748 140.651 301.33 140.232 300.815 140.232C300.3 140.232 299.882 140.651 299.882 141.167C299.882 141.683 300.3 142.102 300.815 142.102Z" fill="#F0F0F0"/>
<path d="M292.414 125.448C292.93 125.448 293.347 125.03 293.347 124.513C293.347 123.997 292.93 123.578 292.414 123.578C291.899 123.578 291.481 123.997 291.481 124.513C291.481 125.03 291.899 125.448 292.414 125.448Z" fill="#F0F0F0"/>
<path d="M358.48 187.526C358.995 187.526 359.413 187.107 359.413 186.591C359.413 186.074 358.995 185.656 358.48 185.656C357.965 185.656 357.547 186.074 357.547 186.591C357.547 187.107 357.965 187.526 358.48 187.526Z" fill="#F0F0F0"/>
<path d="M309.471 188.869C309.986 188.869 310.404 188.45 310.404 187.934C310.404 187.418 309.986 186.999 309.471 186.999C308.956 186.999 308.538 187.418 308.538 187.934C308.538 188.45 308.956 188.869 309.471 188.869Z" fill="#F0F0F0"/>
<path d="M283.464 278.044C283.979 278.044 284.397 277.626 284.397 277.109C284.397 276.593 283.979 276.175 283.464 276.175C282.948 276.175 282.531 276.593 282.531 277.109C282.531 277.626 282.948 278.044 283.464 278.044Z" fill="#F0F0F0"/>
<path d="M254.145 190.343C254.66 190.343 255.078 189.924 255.078 189.408C255.078 188.892 254.66 188.473 254.145 188.473C253.63 188.473 253.212 188.892 253.212 189.408C253.212 189.924 253.63 190.343 254.145 190.343Z" fill="#F0F0F0"/>
<path d="M252.835 172.664C253.35 172.664 253.768 172.245 253.768 171.729C253.768 171.213 253.35 170.794 252.835 170.794C252.32 170.794 251.902 171.213 251.902 171.729C251.902 172.245 252.32 172.664 252.835 172.664Z" fill="#F0F0F0"/>
<path d="M303.982 281.086C305.52 276.624 308.095 272.593 311.493 269.324C311.942 268.893 312.403 268.477 312.878 268.076C317.576 264.093 323.386 261.658 329.515 261.103C331.754 264.318 333.708 267.724 335.354 271.282C335.605 271.825 335.849 272.376 336.085 272.935C336.309 273.469 336.526 274.01 336.731 274.556C339.415 281.641 340.461 289.581 337.032 296.195C333.612 302.791 326.204 306.696 318.806 307.238C314.528 307.494 310.24 306.926 306.174 305.566C303.972 301.651 302.678 297.291 302.387 292.807C302.35 292.242 302.332 291.677 302.327 291.11C302.303 287.698 302.863 284.308 303.982 281.086V281.086Z" fill="#0F2852"/>
<path d="M291.633 275.162C293.131 270.835 298.738 268.288 307.422 267.987C309.16 267.926 311.071 268.65 312.878 268.076C321.642 265.291 329.594 267.111 336.085 272.935C336.309 273.469 336.526 274.01 336.731 274.556C336.645 274.524 336.558 274.493 336.471 274.463C327.7 271.413 318.993 269.632 311.493 269.324C310.107 269.268 308.454 268.464 307.467 269.306C299.539 276.067 294.177 273.234 292.877 275.595C290.978 279.043 294.347 284.415 300.443 289.589C301.045 290.101 301.674 290.608 302.327 291.11C302.332 291.677 302.35 292.242 302.387 292.807C301.404 292.078 300.472 291.341 299.592 290.596C292.961 284.969 290.135 279.487 291.633 275.162Z" fill="#E4E4E4"/>
<path d="M324.482 305.809C324.998 305.809 325.415 305.39 325.415 304.874C325.415 304.358 324.998 303.939 324.482 303.939C323.967 303.939 323.549 304.358 323.549 304.874C323.549 305.39 323.967 305.809 324.482 305.809Z" fill="#F0F0F0"/>
<path d="M307.975 293.784C308.491 293.784 308.908 293.365 308.908 292.849C308.908 292.333 308.491 291.914 307.975 291.914C307.46 291.914 307.042 292.333 307.042 292.849C307.042 293.365 307.46 293.784 307.975 293.784Z" fill="#F0F0F0"/>
<path d="M320.605 296.325C325.615 296.325 329.678 292.254 329.678 287.233C329.678 282.212 325.615 278.141 320.605 278.141C315.594 278.141 311.531 282.212 311.531 287.233C311.531 292.254 315.594 296.325 320.605 296.325Z" fill="#F0F0F0"/>
<path opacity="0.3" d="M178.054 186.723C180.175 186.823 184.562 187.878 189.315 189.243C194.066 190.609 199.219 192.275 204.306 193.923C213.211 196.806 222.116 199.688 231.021 202.569C232.245 202.964 233.473 203.363 234.704 203.766C235.175 204.384 235.644 205.008 236.104 205.638C235.022 205.254 233.936 204.884 232.853 204.53C228.225 203.023 224.21 202.03 219.719 200.659C212.807 198.551 205.516 195.782 198.444 193.204C191.373 190.624 183.26 187.847 178.054 186.723Z" fill="#F0F0F0"/>
<path opacity="0.3" d="M336.396 168.42L356.427 201.74L337.526 167.757C337.504 167.649 337.457 167.548 337.388 167.462C337.319 167.377 337.231 167.308 337.131 167.263C337.03 167.219 336.921 167.198 336.811 167.204C336.701 167.21 336.594 167.243 336.5 167.298C336.405 167.354 336.324 167.431 336.266 167.524C336.207 167.617 336.17 167.723 336.16 167.833C336.15 167.942 336.166 168.053 336.208 168.155C336.249 168.257 336.313 168.348 336.396 168.42V168.42Z" fill="#F0F0F0"/>
<path d="M326.627 266.755C327.142 266.755 327.56 266.336 327.56 265.82C327.56 265.303 327.142 264.885 326.627 264.885C326.112 264.885 325.694 265.303 325.694 265.82C325.694 266.336 326.112 266.755 326.627 266.755Z" fill="#F0F0F0"/>
<path d="M162.978 263.669C166.281 263.669 168.959 260.985 168.959 257.675C168.959 254.365 166.281 251.681 162.978 251.681C159.674 251.681 156.996 254.365 156.996 257.675C156.996 260.985 159.674 263.669 162.978 263.669Z" fill="#0F2852"/>
<path d="M159.434 254.384C158.831 254.219 158.272 253.923 157.795 253.518C157.318 253.112 156.936 252.607 156.676 252.037C156.415 251.468 156.282 250.848 156.286 250.222C156.29 249.595 156.432 248.977 156.7 248.411L145.87 237.726L153.594 236.075L162.694 246.475C163.613 246.989 164.312 247.824 164.657 248.82C165.003 249.817 164.972 250.905 164.57 251.88C164.169 252.855 163.424 253.649 162.477 254.11C161.531 254.572 160.448 254.669 159.434 254.384L159.434 254.384Z" fill="#A0616A"/>
<path d="M107.65 171.23L113.69 175.22L120.76 176.879C120.76 176.879 126.367 217.037 129.122 219.445C131.878 221.854 129.556 222.082 130.303 225.405C131.049 228.728 132.777 235.525 132.777 235.525C115.993 245.95 100.999 247.223 88.2065 237.239C88.0067 236.581 88.0374 235.874 88.2934 235.236C88.5494 234.598 89.0154 234.066 89.614 233.73C91.7771 232.383 87.0854 227.109 88.8561 226.052C90.6267 224.996 87.4978 217.094 87.4978 217.094L88.0438 200.125L86.5237 197.522L88.6651 180.815L94.1853 178.356L96.0754 172.742L107.65 171.23Z" fill="#0F2852"/>
<path d="M110.267 172.639L120.226 175.963C120.226 175.963 131.244 174.797 131.69 191.231C132.136 207.665 130.083 216.484 130.083 216.484C130.083 216.484 153.001 262.665 128.176 249.025L120.921 220.402L113.445 175.449L110.267 172.639Z" fill="#2F2E41"/>
<path d="M120.255 208.973L125.421 208.258C125.421 208.258 125.92 216.062 128.391 217.245C130.862 218.428 130.029 218.623 130.32 219.875C130.612 221.127 128.123 224.596 130.08 225.459C132.038 226.322 149.146 247.935 149.146 247.935L159.24 238.57C158.546 236.687 155.208 238.219 154.998 236.222C154.735 233.204 149.451 224.956 148.327 223.899C147.203 222.841 147.647 220.977 147.064 218.473C146.482 215.969 146.886 218.291 145.915 214.117C144.944 209.944 131.781 188.677 131.323 184.823C130.866 180.969 125.507 178.701 125.507 178.701L121.342 179.674L120.255 208.973Z" fill="#2F2E41"/>
<path d="M76.6379 347.757L82.718 349.357L91.7697 326.618L82.7961 324.257L76.6379 347.757Z" fill="#A0616A"/>
<path d="M74.7581 354.057L93.455 358.977L93.5171 358.74C94.0239 356.806 93.7433 354.749 92.7369 353.022C91.7306 351.296 90.0811 350.04 88.1511 349.532L88.1506 349.532L85.4159 346.037L78.3633 346.957L76.7312 346.527L74.7581 354.057Z" fill="#2F2E41"/>
<path d="M107.807 352.315L114.093 352.315L117.083 328.017L107.805 328.018L107.807 352.315Z" fill="#A0616A"/>
<path d="M107.585 358.886L126.916 358.886V358.641C126.916 356.641 126.123 354.723 124.712 353.309C123.301 351.896 121.388 351.101 119.392 351.101H119.392L115.861 348.417L109.272 351.102L107.585 351.102L107.585 358.886Z" fill="#2F2E41"/>
<path d="M92.0839 236.044C90.5654 237.946 91.3246 244.413 91.3246 244.413C91.3246 244.413 88.6672 265.336 89.8061 267.238C90.945 269.14 89.0468 270.662 87.9079 273.325C86.769 275.987 85.6302 282.455 85.6302 282.455C79.1765 287.78 79.5561 312.127 79.5561 312.127L77.2783 333.81C78.0376 336.093 88.6672 336.473 90.1858 336.093C91.7043 335.713 106.51 282.074 106.51 282.074C106.51 282.074 105.751 333.811 105.751 336.093C105.751 338.375 116.001 337.234 118.278 337.234C120.556 337.234 134.982 244.033 134.982 244.033V238.707L133.084 236.044C133.084 236.044 93.6024 234.142 92.0839 236.044Z" fill="#2F2E41"/>
<path d="M95.6876 173.763L86.3649 179.715L81.8557 183.503L87.8371 221.713C87.8371 221.713 78.7495 256.445 93.0708 254.304C107.392 252.162 106.589 220.949 106.589 220.949L95.6876 173.763Z" fill="#2F2E41"/>
<path d="M108.162 228.042C107.624 228.361 107.023 228.559 106.4 228.62C105.778 228.681 105.15 228.605 104.56 228.396C103.971 228.188 103.434 227.853 102.987 227.414C102.541 226.975 102.196 226.444 101.977 225.857L86.783 226.225L90.9705 219.514L104.757 220.194C105.765 219.89 106.849 219.968 107.804 220.412C108.759 220.856 109.518 221.635 109.938 222.603C110.358 223.57 110.409 224.658 110.081 225.661C109.754 226.663 109.071 227.511 108.162 228.042V228.042Z" fill="#A0616A"/>
<path d="M100.582 168.596C107.213 168.596 112.589 163.209 112.589 156.564C112.589 149.919 107.213 144.532 100.582 144.532C93.9502 144.532 88.5745 149.919 88.5745 156.564C88.5745 163.209 93.9502 168.596 100.582 168.596Z" fill="#A0616A"/>
<path d="M86.9622 148.658C88.3104 146.568 90.8406 145.175 93.2933 145.567C93.5216 143.998 94.175 142.522 95.1823 141.3C96.1896 140.078 97.5122 139.156 99.0061 138.635C100.5 138.114 102.108 138.013 103.655 138.345C105.202 138.676 106.629 139.426 107.78 140.513C108.158 140.246 108.599 140.082 109.06 140.036C109.52 139.989 109.985 140.063 110.409 140.25C111.253 140.634 111.987 141.225 112.545 141.968C113.952 143.727 114.857 145.835 115.164 148.068C115.47 150.302 115.167 152.576 114.286 154.651C114.585 153.559 113.493 152.531 112.39 152.286C111.286 152.041 110.129 152.273 109.01 152.114C107.576 151.909 106.287 151.075 104.85 150.888C103.643 150.73 102.429 151.04 101.252 151.351C100.075 151.662 98.8639 151.979 97.655 151.835C96.446 151.691 94.8888 156.282 94.9097 159.516C94.9136 160.129 94.7877 160.916 94.19 161.046C93.454 161.206 93.0276 160.188 92.3271 159.91C92.0042 159.818 91.6581 159.854 91.3615 160.012C91.065 160.17 90.8413 160.437 90.7375 160.757C90.6492 161.083 90.6397 161.425 90.7099 161.754C90.7801 162.084 90.9278 162.392 91.1409 162.653C91.5715 163.171 92.0826 163.615 92.6546 163.969L92.3661 164.21C91.8862 164.845 90.8908 164.873 90.199 164.48C89.5376 164.031 89.0019 163.419 88.6431 162.704C87.3634 160.571 86.2408 158.299 85.7892 155.852C85.3376 153.404 85.614 150.749 86.9622 148.658Z" fill="#2F2E41"/>
<path d="M91.2015 184.627L85.8059 179.993C85.8059 179.993 79.506 181.963 78.4378 186.104C70.0298 196.878 65.5016 209.46 64.2854 223.586C75.2626 227.74 88.704 229.214 103.164 229.58L100.174 218.341L79.6126 214.595L91.2015 184.627Z" fill="#2F2E41"/>
<path d="M72.0841 353.589L69.2018 348.948L68.6261 351.6C68.5252 352.065 68.4242 352.537 68.3308 353.005C67.5121 352.304 66.641 351.656 65.7888 351.035C63.1719 349.132 60.5563 347.226 57.9419 345.318L58.7606 350.076C59.2653 353.005 59.7924 355.994 61.041 358.673C61.1794 358.976 61.3288 359.276 61.4897 359.568H73.6543C73.7521 359.297 73.8198 359.015 73.8561 358.729C73.8592 358.71 73.8604 358.692 73.8598 358.673C74.0505 356.856 73.0486 355.144 72.0841 353.589Z" fill="#F2F2F2"/>
<path d="M179.588 348.257L185.041 339.476L186.13 344.494C186.321 345.373 186.512 346.266 186.688 347.152C188.237 345.826 189.885 344.6 191.498 343.424C196.448 339.824 201.397 336.219 206.343 332.609L204.794 341.61C203.839 347.152 202.842 352.807 200.48 357.874C200.218 358.448 199.935 359.015 199.631 359.568H176.617C176.432 359.055 176.304 358.522 176.235 357.981C176.23 357.945 176.227 357.91 176.228 357.874C175.868 354.437 177.763 351.198 179.588 348.257Z" fill="#F2F2F2"/>
<path d="M175.31 359.756H150.272C149.131 359.754 148.037 359.3 147.23 358.491C146.423 357.683 145.97 356.587 145.968 355.443V267.419C145.97 266.276 146.423 265.18 147.23 264.371C148.037 263.563 149.131 263.108 150.272 263.107H175.31C176.451 263.108 177.545 263.563 178.352 264.371C179.158 265.18 179.612 266.276 179.613 267.419V355.443C179.612 356.587 179.158 357.683 178.352 358.491C177.545 359.3 176.451 359.754 175.31 359.756V359.756Z" fill="#F2F2F2"/>
<path d="M169.398 265.355H156.558C156.129 265.354 155.718 265.183 155.415 264.879C155.111 264.575 154.941 264.163 154.94 263.734V259.109C154.941 258.679 155.111 258.267 155.415 257.963C155.718 257.659 156.129 257.488 156.558 257.488H169.398C169.827 257.488 170.238 257.659 170.541 257.963C170.844 258.267 171.015 258.679 171.015 259.109V263.734C171.015 264.163 170.844 264.575 170.541 264.879C170.238 265.183 169.827 265.354 169.398 265.355Z" fill="#3F3D56"/>
<path d="M206.119 359.885L51.4451 360C51.3272 360 51.2143 359.952 51.1311 359.869C51.0479 359.785 51.0012 359.672 51.0012 359.554C51.0012 359.436 51.0479 359.323 51.1311 359.239C51.2143 359.155 51.3272 359.108 51.4451 359.108L206.119 358.993C206.237 358.993 206.35 359.04 206.433 359.124C206.516 359.207 206.563 359.321 206.563 359.439C206.563 359.557 206.516 359.67 206.433 359.754C206.35 359.837 206.237 359.884 206.119 359.885V359.885Z" fill="#CACACA"/>
</g>
<rect x="-0.5" y="0.5" width="50" height="48" rx="3.5" transform="matrix(-1 0 0 1 50 0)" stroke="#0F2852"/>
<defs>
<clipPath id="clip0_5_222">
<rect width="322" height="243" fill="white" transform="translate(51 117)"/>
</clipPath>
</defs>
</svg>
