<svg width="420" height="549" viewBox="0 0 420 549" fill="none" xmlns="http://www.w3.org/2000/svg">
<rect width="51" height="49" rx="4" transform="matrix(-1 0 0 1 420 500)" fill="#0F2852"/>
<rect x="20" y="20" width="380" height="509" rx="8" fill="#F7F8F8"/>
<g clip-path="url(#clip0_119_5)">
<path d="M305.077 158.085C303.457 175.939 298.839 194.765 291.598 212.93C282.643 235.393 270.408 255.178 256.216 270.147L255.428 269.46C269.552 254.563 281.731 234.865 290.649 212.495C298.708 192.28 303.502 171.242 304.518 151.667L305.524 151.835C305.417 153.903 305.268 155.986 305.077 158.085Z" fill="#F2F2F2"/>
<path d="M311.533 261.778C291.598 293.485 267.414 316.14 243.434 325.569L242.949 324.68C266.763 315.316 290.806 292.777 310.649 261.215L311.533 261.778Z" fill="#F2F2F2"/>
<path d="M304.594 180.314C302.973 198.168 298.355 216.994 291.114 235.159C282.159 257.622 269.924 277.407 255.732 292.376L254.944 291.689C269.068 276.793 281.247 257.095 290.165 234.724C298.224 214.509 303.018 193.471 304.034 173.896L305.04 174.064C304.933 176.132 304.784 178.215 304.594 180.314Z" fill="#F2F2F2"/>
<path d="M80.8088 226.151H67.7297C67.4502 226.151 67.1743 226.088 66.9225 225.967C66.6708 225.846 66.4498 225.669 66.276 225.45C66.1044 225.237 65.9833 224.988 65.9219 224.721C65.8604 224.454 65.8602 224.177 65.9212 223.91C67.1669 218.415 67.0886 212.703 65.6929 207.243C65.6046 206.884 65.626 206.506 65.7542 206.159C65.8824 205.812 66.1117 205.511 66.4124 205.295C73.1377 200.459 78.4341 200.6 82.1546 205.713C82.3223 205.946 82.4337 206.215 82.4801 206.498C83.4742 212.473 83.5292 218.567 82.6431 224.559C82.5816 225.001 82.3618 225.406 82.0245 225.699C81.6873 225.991 81.2554 226.152 80.8088 226.151V226.151Z" fill="#E6E6E6"/>
<path d="M76.7537 213.055H72.2545C72.0057 213.055 71.7671 212.957 71.5912 212.781C71.4152 212.605 71.3164 212.366 71.3164 212.118C71.3164 211.869 71.4152 211.63 71.5912 211.454C71.7671 211.279 72.0057 211.18 72.2545 211.18H76.7537C77.0022 211.18 77.2403 211.279 77.4158 211.455C77.5913 211.631 77.6899 211.869 77.6899 212.118C77.6899 212.366 77.5913 212.604 77.4158 212.78C77.2403 212.956 77.0022 213.055 76.7537 213.055V213.055Z" fill="white"/>
<path d="M76.7537 216.345H72.2545C72.0057 216.345 71.7671 216.246 71.5912 216.07C71.4152 215.894 71.3164 215.656 71.3164 215.407C71.3164 215.158 71.4152 214.92 71.5912 214.744C71.7671 214.568 72.0057 214.469 72.2545 214.469H76.7537C77.0022 214.47 77.2403 214.569 77.4158 214.744C77.5913 214.92 77.6899 215.158 77.6899 215.407C77.6899 215.655 77.5913 215.894 77.4158 216.069C77.2403 216.245 77.0022 216.344 76.7537 216.345V216.345Z" fill="white"/>
<path d="M76.7537 219.634H72.2545C72.0057 219.634 71.7671 219.535 71.5912 219.359C71.4152 219.184 71.3164 218.945 71.3164 218.696C71.3164 218.447 71.4152 218.209 71.5912 218.033C71.7671 217.857 72.0057 217.758 72.2545 217.758H76.7537C77.0022 217.759 77.2403 217.858 77.4158 218.034C77.5913 218.21 77.6899 218.448 77.6899 218.696C77.6899 218.945 77.5913 219.183 77.4158 219.359C77.2403 219.535 77.0022 219.634 76.7537 219.634V219.634Z" fill="white"/>
<path d="M318.509 284.536H305.43C305.15 284.536 304.874 284.474 304.623 284.352C304.371 284.231 304.15 284.055 303.976 283.836C303.805 283.622 303.684 283.373 303.622 283.106C303.561 282.84 303.56 282.563 303.621 282.296C304.867 276.8 304.789 271.088 303.393 265.629C303.305 265.269 303.326 264.892 303.454 264.544C303.583 264.197 303.812 263.896 304.113 263.68C310.838 258.844 316.134 258.985 319.855 264.098C320.023 264.331 320.134 264.6 320.18 264.883C321.174 270.858 321.229 276.952 320.343 282.944C320.282 283.386 320.062 283.791 319.725 284.084C319.387 284.376 318.956 284.537 318.509 284.536V284.536Z" fill="#E6E6E6"/>
<path d="M314.454 271.441H309.955C309.706 271.44 309.468 271.341 309.293 271.165C309.117 270.99 309.019 270.751 309.019 270.503C309.019 270.254 309.117 270.016 309.293 269.84C309.468 269.665 309.706 269.565 309.955 269.565H314.454C314.703 269.565 314.941 269.664 315.117 269.84C315.293 270.016 315.392 270.254 315.392 270.503C315.392 270.752 315.293 270.99 315.117 271.166C314.941 271.342 314.703 271.441 314.454 271.441Z" fill="white"/>
<path d="M314.454 274.73H309.955C309.706 274.73 309.468 274.63 309.293 274.455C309.117 274.279 309.019 274.041 309.019 273.792C309.019 273.544 309.117 273.305 309.293 273.13C309.468 272.954 309.706 272.855 309.955 272.854H314.454C314.703 272.854 314.941 272.953 315.117 273.129C315.293 273.305 315.392 273.543 315.392 273.792C315.392 274.041 315.293 274.279 315.117 274.455C314.941 274.631 314.703 274.73 314.454 274.73Z" fill="white"/>
<path d="M314.454 278.019H309.955C309.706 278.019 309.468 277.92 309.293 277.744C309.117 277.568 309.019 277.33 309.019 277.081C309.019 276.833 309.117 276.595 309.293 276.419C309.468 276.243 309.706 276.144 309.955 276.144H314.454C314.703 276.144 314.941 276.242 315.117 276.418C315.293 276.594 315.392 276.833 315.392 277.081C315.392 277.33 315.293 277.569 315.117 277.745C314.941 277.921 314.703 278.019 314.454 278.019Z" fill="white"/>
<path d="M368 364.511C368 364.575 367.988 364.639 367.963 364.698C367.939 364.758 367.903 364.812 367.857 364.857C367.812 364.903 367.758 364.939 367.698 364.963C367.639 364.988 367.575 365 367.511 365H56.4894C56.3596 365 56.2351 364.949 56.1433 364.857C56.0516 364.765 56 364.641 56 364.511C56 364.381 56.0516 364.257 56.1433 364.165C56.2351 364.073 56.3596 364.021 56.4894 364.021H367.511C367.575 364.021 367.639 364.034 367.698 364.058C367.758 364.083 367.812 364.119 367.857 364.164C367.903 364.21 367.939 364.264 367.963 364.323C367.988 364.383 368 364.446 368 364.511V364.511Z" fill="#CCCCCC"/>
<path d="M138.045 334.553L137.229 323.21C131.886 320.539 125.971 319.213 119.999 319.347C128.401 325.84 127.728 338.818 133.547 347.7C135.383 350.457 137.816 352.764 140.666 354.453C143.515 356.141 146.708 357.167 150.008 357.454L157.001 361.476C157.801 356.19 157.445 350.793 155.958 345.658C154.471 340.523 151.889 335.771 148.388 331.73C146.402 329.482 144.14 327.494 141.657 325.811C140.128 330.199 138.045 334.553 138.045 334.553Z" fill="#F2F2F2"/>
<path d="M285.955 336.198L286.771 324.854C292.114 322.184 298.029 320.858 304.001 320.991C295.599 327.485 296.272 340.463 290.453 349.345C288.617 352.101 286.184 354.409 283.334 356.097C280.485 357.786 277.292 358.811 273.992 359.098L266.999 363.12C266.199 357.835 266.555 352.438 268.042 347.303C269.529 342.168 272.111 337.416 275.612 333.374C277.598 331.127 279.86 329.138 282.343 327.456C283.872 331.843 285.955 336.198 285.955 336.198Z" fill="#F2F2F2"/>
<path d="M208.299 208.189C212.614 208.189 216.112 204.691 216.112 200.377C216.112 196.062 212.614 192.564 208.299 192.564C203.983 192.564 200.485 196.062 200.485 200.377C200.485 204.691 203.983 208.189 208.299 208.189Z" fill="#0F2852"/>
<path d="M212.31 197.121C212.192 197.009 212.036 196.946 211.874 196.946C211.711 196.946 211.555 197.009 211.437 197.121C209.779 198.443 208.29 199.963 207.003 201.649C206.687 201.038 206.372 200.426 206.056 199.815C205.691 199.11 204.626 199.733 204.99 200.438C205.452 201.332 205.915 202.226 206.377 203.12C206.432 203.211 206.511 203.286 206.604 203.339C206.697 203.391 206.802 203.418 206.909 203.418C207.016 203.418 207.121 203.391 207.215 203.339C207.308 203.286 207.386 203.211 207.442 203.12C208.813 201.189 210.452 199.462 212.31 197.993C212.425 197.877 212.489 197.72 212.489 197.557C212.489 197.394 212.425 197.237 212.31 197.121V197.121Z" fill="white"/>
<path d="M173.337 222.529L161.554 204.028L175.198 196.723L178.779 210.838L204.011 224.47C205.007 224.111 206.086 224.05 207.117 224.294C208.147 224.539 209.084 225.077 209.813 225.844C210.542 226.611 211.033 227.574 211.224 228.615C211.416 229.656 211.3 230.731 210.892 231.707C210.483 232.684 209.799 233.52 208.923 234.115C208.047 234.709 207.017 235.036 205.959 235.056C204.9 235.075 203.859 234.786 202.962 234.224C202.065 233.662 201.35 232.851 200.906 231.891L173.337 222.529Z" fill="#A0616A"/>
<path d="M152.945 181.839C149.243 187.273 162.4 207.028 162.4 207.028C163.041 205.646 169.168 221.158 170.194 220.241C173.11 217.637 177.676 210.383 180.214 210.06C181.665 209.875 176.848 199.584 176.848 199.584C176.848 199.584 174.646 193.507 171.659 185.745C170.855 183.535 169.505 181.564 167.734 180.015C165.963 178.467 163.829 177.392 161.531 176.89C161.531 176.89 156.647 176.404 152.945 181.839Z" fill="#3F3D56"/>
<path d="M153.126 358.9L158.722 358.9L161.384 337.32L153.125 337.32L153.126 358.9Z" fill="#A0616A"/>
<path d="M151.698 357.074L153.274 357.074L159.423 354.573L162.719 357.073H162.719C164.582 357.073 166.368 357.813 167.685 359.13C169.002 360.447 169.742 362.233 169.742 364.095V364.323L151.699 364.324L151.698 357.074Z" fill="#2F2E41"/>
<path d="M179.123 358.9L184.719 358.9L187.382 337.32L179.123 337.32L179.123 358.9Z" fill="#A0616A"/>
<path d="M177.696 357.074L179.271 357.074L185.421 354.573L188.716 357.073H188.717C190.579 357.073 192.366 357.813 193.683 359.13C195 360.447 195.74 362.233 195.74 364.095V364.323L177.696 364.324L177.696 357.074Z" fill="#2F2E41"/>
<path d="M181.546 240.921L145.147 241.831C138.235 245.585 138.13 253.71 140.395 263.356C140.395 263.356 139.63 269.09 141.159 270.619C142.689 272.148 143.453 272.148 142.689 274.824C141.924 277.499 145.964 281.869 145.473 282.36C144.982 282.851 143.836 285.526 143.836 285.526L147.659 307.314C147.659 307.314 150.335 345.156 151.1 345.92C151.864 346.685 152.629 345.92 151.864 347.832C151.1 349.743 150.335 348.978 151.1 349.743C151.777 350.473 152.415 351.238 153.011 352.036H162.254C162.254 352.036 162.951 348.214 162.951 347.832C162.951 347.449 163.716 345.156 163.716 344.774C163.716 344.391 163.04 343.716 163.04 343.716C162.807 342.939 162.649 342.141 162.569 341.333C162.569 340.569 160.275 311.136 160.275 311.136L164.863 272.912L175.95 310.372C175.95 310.372 175.95 343.245 176.715 344.009C177.479 344.774 177.479 344.391 177.097 345.92C176.715 347.449 175.186 347.067 176.332 348.214C177.479 349.36 177.862 347.449 177.479 349.36L177.097 351.272L188.567 351.436C188.567 351.436 190.096 348.214 189.331 347.067C188.567 345.92 188.613 346.233 189.545 344.357C190.478 342.48 190.861 342.098 190.478 341.716C190.096 341.333 190.096 339.3 190.096 339.3L188.184 302.727C188.184 302.727 187.802 264.121 187.802 262.974C187.773 262.384 187.882 261.795 188.12 261.254V259.698L186.655 254.183L181.546 240.921Z" fill="#2F2E41"/>
<path d="M159.681 165.252C165.927 165.252 170.99 160.19 170.99 153.945C170.99 147.7 165.927 142.638 159.681 142.638C153.435 142.638 148.372 147.7 148.372 153.945C148.372 160.19 153.435 165.252 159.681 165.252Z" fill="#A0616A"/>
<path d="M165.335 172.725C167.772 174.173 169.229 176.834 170.066 179.542C171.615 184.554 172.547 189.737 172.842 194.975L173.726 210.658L184.67 244.05C175.185 252.074 139.532 245.874 139.532 245.874C139.532 245.874 138.438 245.509 139.532 244.415C140.626 243.32 141.692 244.29 140.597 243.196C139.503 242.101 140.258 243.32 140.622 242.226C140.987 241.132 140.622 241.862 140.258 241.497C139.893 241.132 143.082 237.849 143.082 237.849L140.163 218.682L136.515 180.02C140.893 174.549 149.697 171.323 149.697 171.323L151.972 167.229L163.346 168.139L165.335 172.725Z" fill="#3F3D56"/>
<path d="M169.003 147.938C169.882 148.593 170.533 149.508 170.865 150.553C170.993 148.845 171.001 147.131 170.889 145.422C170.756 144.221 169.91 143.951 168.931 143.638C168.047 143.355 167.047 143.036 166.778 141.87C163.223 138.413 157.035 138.587 152.8 139.793C150.469 140.457 149.128 141.31 149.008 141.809L148.984 141.912L148.889 141.959C147.093 142.857 146.743 145.693 146.766 147.914C146.81 152.098 148.255 156.849 149.069 157.235C149.112 157.256 149.123 157.248 149.141 157.232C150.367 156.253 151.862 157.307 152.519 157.88C152.907 155.279 154.155 152.884 156.064 151.076C157.973 149.268 160.433 148.151 163.051 147.905C163.906 147.822 164.754 147.68 165.59 147.479C166.013 147.37 166.449 147.313 166.886 147.309C167.64 147.298 168.378 147.517 169.003 147.938V147.938Z" fill="#2F2E41"/>
<path d="M239.209 249.931L260.964 227.844L266.695 210.179L257.472 206.449C252.903 211.057 248.199 225.163 248.199 225.163L233.351 245.087C233.232 245.131 233.114 245.178 232.998 245.233C232.314 245.556 231.725 246.049 231.288 246.666C230.851 247.283 230.581 248.002 230.503 248.753C230.425 249.505 230.542 250.264 230.843 250.958C231.145 251.651 231.62 252.255 232.223 252.711C232.826 253.167 233.536 253.459 234.285 253.561C235.034 253.662 235.797 253.568 236.499 253.289C237.202 253.009 237.82 252.554 238.295 251.965C238.769 251.377 239.084 250.676 239.209 249.931Z" fill="#FFB8B8"/>
<path d="M254.956 208.47L266.62 211.843L266.664 211.835C270.951 211.002 274.343 203.879 276.433 198.049C277.12 196.126 277.052 194.014 276.242 192.14C275.431 190.265 273.939 188.769 272.067 187.952V187.952C270.682 187.359 269.159 187.165 267.67 187.392C266.18 187.619 264.784 188.258 263.639 189.237L257.823 194.244L254.956 208.47Z" fill="#0F2852"/>
<path d="M244.976 358.244L238.703 358.244L235.719 334.053L244.977 334.053L244.976 358.244Z" fill="#FFB8B8"/>
<path d="M246.576 356.196L244.811 356.196L237.917 353.393L234.222 356.196H234.222C232.134 356.196 230.132 357.025 228.655 358.501C227.179 359.977 226.349 361.979 226.349 364.067V364.323L246.576 364.323L246.576 356.196Z" fill="#2F2E41"/>
<path d="M272.811 358.244L266.537 358.244L263.553 334.053L272.812 334.053L272.811 358.244Z" fill="#FFB8B8"/>
<path d="M274.411 356.196L272.645 356.196L265.752 353.393L262.057 356.196H262.056C259.968 356.196 257.966 357.025 256.49 358.501C255.013 359.977 254.184 361.979 254.184 364.067V364.323L274.41 364.323L274.411 356.196Z" fill="#2F2E41"/>
<path d="M282.376 254.045C282.376 254.045 283.108 262.833 281.277 271.255C279.446 279.676 279.446 303.395 279.446 303.395L275.417 349.615L263.331 348.516L260.035 271.255L248.315 297.253L249.414 300.914L247.95 301.83C247.95 301.83 249.047 308.97 248.315 308.97C247.583 308.97 245.751 310.069 245.751 310.069L247.216 347.784L234.764 347.418L230.369 294.323L235.13 263.931L235.497 258.073L237.145 258.14L237.984 255.692L239.525 251.481L282.376 254.045Z" fill="#2F2E41"/>
<path d="M283.009 255.89L283.074 255.799C286.56 250.919 281.317 239.194 280.526 237.494L283.857 236.413L283.107 230.039L282.752 227.197L285.297 224.652L285.304 224.589L286.769 211.773L288.899 203.261C289.702 200.043 289.634 196.669 288.701 193.486C287.769 190.304 286.006 187.426 283.594 185.15L278.671 180.508L272.687 171.656H263.038L259.729 177.905C256.521 178.646 253.676 180.489 251.687 183.112C249.699 185.735 248.694 188.973 248.847 192.261L249.597 208.648L246.662 229.051L246.66 232.744L243.356 236.414L244.078 240.02L241.564 241.098L240.453 246.277C239.994 246.883 236.962 250.926 236.962 252.031C236.962 252.197 237.084 252.357 237.347 252.535C239.414 253.934 250.836 256.786 255.891 254.764C261.276 252.611 282.682 255.84 282.898 255.873L283.009 255.89Z" fill="#0F2852"/>
<path d="M266.616 168.799C273.673 168.799 279.395 163.079 279.395 156.022C279.395 148.966 273.673 143.246 266.616 143.246C259.558 143.246 253.836 148.966 253.836 156.022C253.836 163.079 259.558 168.799 266.616 168.799Z" fill="#FFB8B8"/>
<path d="M265.391 169.006C267.37 168.986 269.344 168.796 271.291 168.44C273.219 167.996 277.471 164.709 278.63 162.767C279.491 161.323 280.008 159.091 280.29 157.473C280.671 155.331 280.597 153.134 280.075 151.022C279.552 148.911 278.591 146.933 277.255 145.216C276.74 144.497 276.04 143.93 275.23 143.576C275.158 143.55 275.084 143.527 275.01 143.508C273.835 143.231 272.769 142.609 271.95 141.722C271.791 141.543 271.619 141.375 271.436 141.22C270.517 140.485 269.437 139.977 268.284 139.739C266.422 139.291 263.758 139.852 260.367 141.405C258.663 142.186 256.772 141.968 255.314 141.691C255.232 141.678 255.148 141.686 255.071 141.715C254.993 141.744 254.924 141.792 254.871 141.856C254.27 142.451 253.465 142.796 252.619 142.822C252.102 142.858 251.577 143.589 250.944 144.541C250.8 144.757 250.633 145.01 250.511 145.164L250.487 144.874L250.202 145.205C249.754 145.725 249.446 146.349 249.304 147.02C249.163 147.691 249.194 148.387 249.394 149.043C249.594 149.698 249.957 150.293 250.449 150.771C250.941 151.249 251.546 151.594 252.207 151.776C252.732 151.901 253.268 151.972 253.807 151.988C254.134 152.009 254.472 152.031 254.797 152.079C255.84 152.264 256.817 152.717 257.633 153.393C258.449 154.069 259.076 154.945 259.452 155.936C259.541 156.164 259.681 156.37 259.862 156.536C260.042 156.702 260.259 156.824 260.495 156.893C260.73 156.962 260.979 156.977 261.22 156.934C261.462 156.892 261.691 156.795 261.89 156.651C262.22 156.38 262.61 156.193 263.028 156.105C263.446 156.018 263.879 156.033 264.29 156.149C264.647 156.336 264.93 156.64 265.09 157.01C265.283 157.422 265.594 157.767 265.985 158.001C267.315 158.644 267.483 161.64 267.076 164.152C266.684 166.573 265.83 168.339 265 168.447C264.362 168.529 264.289 168.577 264.246 168.691L264.207 168.794L264.282 168.887C264.639 169.006 265.017 169.046 265.391 169.006V169.006Z" fill="#2F2E41"/>
<path d="M254.789 209.836L248.646 202.011C242.389 203.734 231.287 213.627 231.287 213.627L208.487 223.52C207.726 223.392 206.945 223.467 206.222 223.737C205.499 224.007 204.86 224.462 204.37 225.058C203.879 225.653 203.554 226.367 203.427 227.128C203.3 227.889 203.375 228.67 203.646 229.393C203.917 230.115 204.374 230.753 204.97 231.243C205.566 231.733 206.28 232.057 207.042 232.183C207.803 232.309 208.584 232.233 209.306 231.961C210.029 231.689 210.666 231.232 211.156 230.636L241.023 222.305L254.789 209.836Z" fill="#FFB8B8"/>
<path d="M253.317 211.625L263.009 200.823L263.547 193.168C263.647 191.665 263.325 190.164 262.617 188.835C261.908 187.505 260.842 186.4 259.539 185.645V185.645C257.765 184.633 255.673 184.332 253.685 184.803C251.698 185.274 249.964 186.482 248.833 188.182C245.408 193.343 241.724 200.32 243.62 204.253L243.639 204.293L253.317 211.625Z" fill="#0F2852"/>
<path d="M163.985 252.227L138.794 239.329C137.002 238.411 136.409 235.978 137.471 233.904L153.896 201.84C154.958 199.766 157.28 198.825 159.072 199.743L184.262 212.642C186.054 213.559 186.648 215.993 185.586 218.066L169.161 250.13C168.098 252.204 165.776 253.145 163.985 252.227Z" fill="#E6E6E6"/>
<path d="M159.681 246.298L142.566 237.534C140.888 236.675 140.332 234.396 141.327 232.454L154.972 205.815C155.967 203.873 158.142 202.992 159.82 203.851L180.491 214.436C182.169 215.295 182.725 217.574 181.73 219.517L174.317 233.988C169.886 242.639 167.156 250.125 159.681 246.298Z" fill="white"/>
<path d="M168.142 231.751L152.983 223.988C152.798 223.856 152.666 223.662 152.612 223.441C152.559 223.22 152.586 222.987 152.69 222.784C152.793 222.582 152.967 222.423 153.178 222.338C153.388 222.252 153.623 222.246 153.839 222.319L168.998 230.081C169.183 230.213 169.315 230.407 169.369 230.629C169.423 230.85 169.395 231.083 169.291 231.285C169.188 231.488 169.014 231.646 168.804 231.732C168.593 231.817 168.358 231.824 168.142 231.751V231.751Z" fill="#0F2852"/>
<path d="M154.753 229.058L151.294 227.287C151.109 227.155 150.977 226.961 150.923 226.74C150.869 226.518 150.896 226.285 151 226.083C151.104 225.88 151.277 225.722 151.488 225.636C151.699 225.551 151.934 225.544 152.149 225.617L155.609 227.389C155.794 227.521 155.926 227.715 155.98 227.936C156.033 228.157 156.006 228.39 155.902 228.593C155.799 228.795 155.625 228.954 155.414 229.039C155.204 229.125 154.969 229.132 154.753 229.058V229.058Z" fill="#0F2852"/>
<path d="M159.191 235.494L149.604 230.585C149.419 230.453 149.287 230.259 149.233 230.038C149.179 229.817 149.207 229.584 149.311 229.381C149.414 229.179 149.587 229.02 149.798 228.935C150.009 228.849 150.244 228.843 150.459 228.916L160.046 233.825C160.231 233.957 160.363 234.151 160.417 234.372C160.471 234.593 160.443 234.826 160.34 235.029C160.236 235.231 160.063 235.39 159.852 235.475C159.641 235.561 159.406 235.567 159.191 235.494V235.494Z" fill="#0F2852"/>
<path d="M174.142 220.04L158.982 212.278C158.797 212.146 158.665 211.951 158.611 211.73C158.558 211.509 158.585 211.276 158.689 211.074C158.792 210.871 158.966 210.713 159.177 210.627C159.387 210.542 159.622 210.535 159.838 210.608L174.997 218.37C175.182 218.502 175.314 218.697 175.368 218.918C175.422 219.139 175.394 219.372 175.29 219.574C175.187 219.777 175.014 219.935 174.803 220.021C174.592 220.106 174.357 220.113 174.142 220.04V220.04Z" fill="#0F2852"/>
<path d="M160.752 217.348L157.293 215.576C157.107 215.444 156.976 215.25 156.922 215.029C156.868 214.808 156.895 214.575 156.999 214.372C157.103 214.17 157.276 214.011 157.487 213.926C157.698 213.84 157.932 213.833 158.148 213.907L161.607 215.678C161.793 215.81 161.924 216.004 161.978 216.225C162.032 216.446 162.005 216.68 161.901 216.882C161.797 217.085 161.624 217.243 161.413 217.329C161.202 217.414 160.968 217.421 160.752 217.348V217.348Z" fill="#0F2852"/>
<path d="M165.19 223.784L155.603 218.875C155.418 218.743 155.286 218.548 155.232 218.327C155.178 218.106 155.206 217.873 155.309 217.671C155.413 217.468 155.586 217.31 155.797 217.224C156.008 217.139 156.243 217.132 156.458 217.205L166.045 222.114C166.23 222.246 166.362 222.44 166.416 222.661C166.47 222.882 166.442 223.116 166.339 223.318C166.235 223.521 166.062 223.679 165.851 223.765C165.64 223.85 165.405 223.857 165.19 223.784L165.19 223.784Z" fill="#0F2852"/>
<path d="M143.11 224.313L137.419 203.131L152.627 200.252L151.809 214.791L171.791 235.362C172.849 235.319 173.896 235.584 174.806 236.126C175.715 236.667 176.448 237.462 176.913 238.413C177.379 239.363 177.558 240.429 177.428 241.479C177.299 242.53 176.866 243.52 176.184 244.329C175.501 245.138 174.598 245.731 173.584 246.036C172.57 246.34 171.489 246.343 170.473 246.045C169.458 245.746 168.551 245.158 167.864 244.353C167.176 243.548 166.738 242.56 166.603 241.51L143.11 224.313Z" fill="#A0616A"/>
<path d="M135.863 179.381C130.701 183.455 137.327 206.245 137.327 206.245C138.352 205.12 139.544 221.754 140.798 221.188C144.362 219.578 150.893 214.027 153.411 214.48C154.851 214.738 153.342 203.477 153.342 203.477C153.342 203.477 153.065 197.019 152.543 188.719C152.44 186.369 151.743 184.084 150.518 182.076C149.293 180.068 147.58 178.403 145.538 177.235C145.538 177.235 141.025 175.307 135.863 179.381Z" fill="#3F3D56"/>
<path d="M221.754 271.328L208.008 264.838C207.714 264.7 207.455 264.497 207.251 264.245C207.046 263.992 206.902 263.697 206.828 263.381C206.753 263.072 206.75 262.749 206.817 262.439C206.885 262.128 207.023 261.836 207.219 261.586C211.201 256.498 213.935 250.548 215.203 244.213C215.298 243.728 215.559 243.291 215.941 242.977C216.323 242.663 216.802 242.491 217.297 242.49C224.308 242.514 229.547 245.073 232.87 250.096C233.045 250.357 233.161 250.654 233.21 250.965C233.259 251.275 233.239 251.593 233.153 251.895C231.229 258.525 228.302 264.821 224.472 270.565C224.188 270.999 223.756 271.316 223.256 271.456C222.757 271.596 222.223 271.551 221.754 271.328Z" fill="#E6E6E6"/>
<path d="M225.798 262.225L215.287 257.263C215.026 257.14 214.824 256.917 214.727 256.645C214.629 256.373 214.644 256.073 214.767 255.812C214.89 255.55 215.113 255.349 215.385 255.251C215.657 255.154 215.957 255.168 216.219 255.292L226.729 260.254C226.859 260.315 226.975 260.401 227.071 260.507C227.167 260.613 227.242 260.737 227.29 260.872C227.338 261.007 227.36 261.149 227.353 261.292C227.346 261.435 227.311 261.576 227.25 261.705C227.188 261.835 227.102 261.951 226.996 262.047C226.89 262.143 226.766 262.218 226.632 262.266C226.497 262.314 226.354 262.335 226.211 262.329C226.068 262.322 225.927 262.287 225.798 262.225H225.798Z" fill="white"/>
<path d="M227.431 258.768L216.92 253.806C216.659 253.683 216.457 253.46 216.359 253.188C216.262 252.916 216.276 252.616 216.4 252.355C216.523 252.093 216.746 251.892 217.018 251.794C217.29 251.696 217.59 251.711 217.851 251.834L228.362 256.797C228.623 256.92 228.825 257.142 228.923 257.415C229.02 257.687 229.006 257.987 228.882 258.248C228.759 258.509 228.537 258.711 228.264 258.809C227.992 258.906 227.692 258.892 227.431 258.768V258.768Z" fill="white"/>
<path d="M213.387 150.244L212.408 150.352C208.046 133.212 199.59 121.339 187.955 116.014C173.163 109.245 154.873 113.79 136.453 128.813C117.939 143.913 101.55 167.764 90.3038 195.974L89.3545 195.54C100.65 167.206 117.123 143.24 135.741 128.056C154.451 112.796 173.115 108.217 188.294 115.163C200.263 120.641 208.94 132.772 213.387 150.244Z" fill="#F2F2F2"/>
<path d="M105.445 172.566C102.886 177.955 100.453 183.538 98.2115 189.16C85.3147 221.511 78.7791 254.55 79.3132 284.707L78.3052 284.6C77.7706 254.331 84.325 221.177 97.2622 188.725C99.5098 183.088 101.95 177.489 104.516 172.085L105.445 172.566Z" fill="#F2F2F2"/>
<path d="M104.961 194.795C102.403 200.184 99.9688 205.767 97.7277 211.389C84.8308 243.74 78.2952 276.779 78.8293 306.936L77.8213 306.829C77.2867 276.56 83.8411 243.406 96.7783 210.954C99.0259 205.317 101.467 199.718 104.033 194.314L104.961 194.795Z" fill="#F2F2F2"/>
<path d="M77.8698 202.879C78.984 201.205 78.3245 198.808 76.3967 197.526C74.4689 196.243 72.0029 196.561 70.8886 198.236C69.7744 199.91 70.4339 202.307 72.3617 203.589C74.2895 204.872 76.7555 204.554 77.8698 202.879Z" fill="#CCCCCC"/>
<path d="M315.135 263.349C316.249 261.674 315.59 259.277 313.662 257.995C311.734 256.713 309.268 257.031 308.154 258.705C307.039 260.38 307.699 262.777 309.627 264.059C311.555 265.341 314.021 265.023 315.135 263.349Z" fill="#CCCCCC"/>
</g>
<rect x="-0.5" y="0.5" width="50" height="48" rx="3.5" transform="matrix(-1 0 0 1 50 0)" stroke="#0F2852"/>
<defs>
<clipPath id="clip0_119_5">
<rect width="312" height="253" fill="white" transform="translate(56 112)"/>
</clipPath>
</defs>
</svg>
