<?xml version="1.0" encoding="utf-8"?>
<!-- Generator: Adobe Illustrator 26.0.3, SVG Export Plug-In . SVG Version: 6.00 Build 0)  -->
<svg version="1.1" id="Laag_1" xmlns="http://www.w3.org/2000/svg" xmlns:xlink="http://www.w3.org/1999/xlink" x="0px" y="0px"
	 viewBox="0 0 236.76 348.94" style="enable-background:new 0 0 236.76 348.94;" xml:space="preserve">
<style type="text/css">
	.st0{fill:url(#SVGID_1_);}
	.st1{fill:url(#SVGID_00000021084104125787492070000007477691637731588788_);}
	.st2{fill:url(#SVGID_00000003070078066904531670000017149803728743140495_);}
	.st3{fill:url(#SVGID_00000163055993607181200420000013597909160646984075_);}
	.st4{fill:url(#SVGID_00000083067246784840761120000016715214679410392979_);}
	.st5{fill:url(#SVGID_00000139282491448788212810000010253705844826045372_);}
	.st6{fill:url(#SVGID_00000179619366664201966910000011379757938422085809_);}
	.st7{fill:url(#SVGID_00000122707693834649637060000012500448686283627960_);}
	.st8{fill:url(#SVGID_00000170261923908486411700000000919720218271505799_);}
	.st9{fill:url(#SVGID_00000077309039476316208850000010954843972608722313_);}
	.st10{fill:url(#SVGID_00000123410751956075622350000011411312489398954884_);}
	.st11{fill:url(#SVGID_00000047764760837842917030000009933386487645986495_);}
	.st12{fill:url(#SVGID_00000078009879289964874720000014437106903509326771_);}
	.st13{fill:url(#SVGID_00000048481787452592616400000017987789394352613055_);}
	.st14{fill:url(#SVGID_00000141449499854043072140000005573271249288042880_);}
	.st15{fill:url(#SVGID_00000008846953567511110180000003099036722334856855_);}
	.st16{fill:url(#SVGID_00000132778624462360243530000000682343133788251792_);}
	.st17{fill:url(#SVGID_00000051369047296998938590000014842203548489294492_);}
	.st18{fill:url(#SVGID_00000021118304919052178810000007662957848713143684_);}
	.st19{fill:url(#SVGID_00000052817582438453928530000013903198155837342610_);}
	.st20{fill:url(#SVGID_00000133518494537931347730000003182069373585149852_);}
	.st21{fill:url(#SVGID_00000048496104953115969720000012385615025285956743_);}
	.st22{fill:url(#SVGID_00000136388319033145680610000004393107992092757424_);}
	.st23{fill:url(#SVGID_00000096781045789159053230000004703326043668025251_);}
	.st24{fill:url(#SVGID_00000138545400461628401700000015165648761821960632_);}
	.st25{fill:url(#SVGID_00000071531347620615708850000003877641731571985592_);}
	.st26{fill:url(#SVGID_00000048470976633867704010000004163514465579649416_);}
	.st27{fill:url(#SVGID_00000064344663860199949580000016787618638609420199_);}
	.st28{fill:url(#SVGID_00000124852265932730462830000001787518780672837026_);}
	.st29{fill:url(#SVGID_00000083776891737968888040000008160939286581150352_);}
	.st30{fill:url(#SVGID_00000044881896193089294770000002862677220983374748_);}
	.st31{fill:url(#SVGID_00000054241397415411200640000015655654713951577986_);}
	.st32{fill:url(#SVGID_00000016772430533684770220000015073180997423360649_);}
	.st33{fill:url(#SVGID_00000030467896755823986900000005433831804728249011_);}
	.st34{fill:url(#SVGID_00000033342297827702023570000005216061743332809663_);}
	.st35{fill:url(#SVGID_00000051359669985475204400000002563013627826936201_);}
	.st36{fill:url(#SVGID_00000101065070495976809820000014117335073314422449_);}
	.st37{fill:url(#SVGID_00000018932194676981490250000013295359984088285572_);}
	.st38{fill:url(#SVGID_00000096739042338107960450000003598407606897456818_);}
	.st39{fill:url(#SVGID_00000169539153877373892890000011237821976424985508_);}
	.st40{fill:url(#SVGID_00000058582234230470866360000016308044702000604562_);}
	.st41{fill:url(#SVGID_00000148663618201386722900000017516117944097885368_);}
	.st42{fill:url(#SVGID_00000005225648262797340950000004878126659010887613_);}
	.st43{fill:url(#SVGID_00000055667613091470794000000008001884800767746467_);}
	.st44{fill:url(#SVGID_00000075131237711852027980000013385080799820715424_);}
	.st45{fill:url(#SVGID_00000090269832113161790080000001857984844070777216_);}
	.st46{fill:url(#SVGID_00000182530884375751086180000007747499763693977230_);}
	.st47{fill:url(#SVGID_00000101812253804723243430000013541301052682272410_);}
	.st48{fill:url(#SVGID_00000107587883544616332800000000676868722422111654_);}
	.st49{fill:url(#SVGID_00000137833519242932569860000012215223667794915496_);}
	.st50{fill:url(#SVGID_00000018209583009349144740000004069032319081292959_);}
	.st51{fill:url(#SVGID_00000182530142243413644720000017161855831959243919_);}
	.st52{fill:#FFFFFF;}
	.st53{fill:url(#SVGID_00000008853864400620531700000004657874720781668481_);}
	.st54{fill:url(#SVGID_00000132074751883357856480000000531758856876327339_);}
	.st55{fill:url(#SVGID_00000052808935362496214000000007185863619696799397_);}
	.st56{fill:url(#SVGID_00000120536625588858358710000002257655042042026368_);}
	.st57{fill:url(#SVGID_00000029029815346760847490000009112641106608968368_);}
	.st58{fill:url(#SVGID_00000000224920526799626870000017240023156940142007_);}
	.st59{fill:url(#SVGID_00000122719024406539798160000013349076056232244634_);}
	.st60{fill:url(#SVGID_00000129201248732413364040000004874713858946298514_);}
	.st61{fill:url(#SVGID_00000178175233367218165410000002602713019417162636_);}
	.st62{fill:url(#SVGID_00000050632752361362358610000006692145968881215141_);}
	.st63{fill:url(#SVGID_00000121241180391435130210000016998130128179920297_);}
	.st64{fill:url(#SVGID_00000156565900136899945290000017820501281622221968_);}
	.st65{fill:url(#SVGID_00000168813474377925725940000014943636638199611788_);}
	.st66{fill:url(#SVGID_00000045610759272686990300000010817753859476265105_);}
	.st67{fill:url(#SVGID_00000080205242715812083380000008787135735146543547_);}
	.st68{fill:url(#SVGID_00000021818366632525504190000005271401812395985554_);}
	.st69{fill:url(#SVGID_00000114776290340571757020000017639295867125472150_);}
	.st70{fill:url(#SVGID_00000100364208356135439900000009619416995530231482_);}
	.st71{fill:url(#SVGID_00000073698627564396333570000016253406261566872974_);}
	.st72{fill:url(#SVGID_00000101087939203728087100000018112770770817059206_);}
	.st73{fill:url(#SVGID_00000066513671469322999910000008649851430578464645_);}
	.st74{fill:url(#SVGID_00000062902922264804218160000007892319755302232222_);}
	.st75{fill:url(#SVGID_00000090991719850942647050000002810159060044504705_);}
	.st76{fill:url(#SVGID_00000041984926263805954530000007068106181270569101_);}
	.st77{fill:url(#SVGID_00000024686994667517250140000003607942939340812722_);}
	.st78{fill:url(#SVGID_00000047024076759303564910000010333306566568072338_);}
	.st79{fill:url(#SVGID_00000058577004282474435740000001025291943281745810_);}
	.st80{fill:url(#SVGID_00000106144361295632432700000013474052965784054960_);}
	.st81{fill:url(#SVGID_00000098192104566535010280000014907730479868597172_);}
	.st82{fill:url(#SVGID_00000036248035176712625250000014385512829712676543_);}
	.st83{fill:url(#SVGID_00000172402425263798727260000002082774886187874443_);}
	.st84{fill:url(#SVGID_00000060734955730694492690000008545906666696832406_);}
	.st85{fill:url(#SVGID_00000014630741401769605980000014044322602976517782_);}
	.st86{fill:url(#SVGID_00000061456776934680341120000010098479630141340078_);}
	.st87{fill:url(#SVGID_00000017497806648632853740000016723631383105004203_);}
	.st88{fill:url(#SVGID_00000159461064805803608510000000739426201257267895_);}
	.st89{fill:url(#SVGID_00000030456092848914824550000002112942283274302102_);}
	.st90{fill:url(#SVGID_00000044856375284965809810000009026736584451010203_);}
	.st91{fill:url(#SVGID_00000128453611792807962800000008310573843919644308_);}
	.st92{fill:url(#SVGID_00000046319282377704162060000000615452152229019063_);}
	.st93{fill:url(#SVGID_00000148629337116116671790000010290777675509298088_);}
	.st94{fill:url(#SVGID_00000027562926061911332410000002044640477352713919_);}
	.st95{fill:url(#SVGID_00000166659134273409414080000004874847223084993163_);}
	.st96{fill:url(#SVGID_00000098920169884679729400000009657897396305150633_);}
	.st97{fill:url(#SVGID_00000107563762694578638430000018395991685117762230_);}
	.st98{fill:url(#SVGID_00000079483511487894005890000000871722262051199111_);}
	.st99{fill:url(#SVGID_00000004513108078980962690000004878039830430414253_);}
	.st100{fill:url(#SVGID_00000025444445247820906900000012234591310598230929_);}
	.st101{fill:url(#SVGID_00000142880995580588728620000018253753828451611824_);}
	.st102{fill:url(#SVGID_00000183936401175962611960000000887919187397415326_);}
	.st103{fill:url(#SVGID_00000127043828387010193760000015553443272945914271_);}
	.st104{fill:url(#SVGID_00000166656909438093772910000008095447104774436773_);}
	.st105{fill:url(#SVGID_00000104703258819503406190000004071618072446893701_);}
	.st106{fill:url(#SVGID_00000168109922414080084150000012661109275144620426_);}
	.st107{fill:url(#SVGID_00000062161636653741610740000011192030269812571057_);}
	.st108{fill:url(#SVGID_00000022535816081545470490000003623449253370396066_);}
	.st109{fill:url(#SVGID_00000167382776780013257840000015191354862013163707_);}
	.st110{fill:url(#SVGID_00000022532209686877241830000007829319584777328308_);}
	.st111{fill:url(#SVGID_00000068653465559742248950000001822028997381537940_);}
	.st112{fill:url(#SVGID_00000003081817868990808460000001221582121482448802_);}
	.st113{fill:url(#SVGID_00000127760369652468414170000013853999618237700485_);}
	.st114{fill:url(#SVGID_00000039826195573314088010000002995631385233701268_);}
	.st115{fill:url(#SVGID_00000124160729100741878160000014147811015284129440_);}
	.st116{fill:url(#SVGID_00000121963214951649006520000000778466098265110448_);}
	.st117{fill:url(#SVGID_00000087409485228195158080000001683111404215062430_);}
	.st118{fill:url(#SVGID_00000127038514009684276670000011075398647268550589_);}
	.st119{fill:url(#SVGID_00000036252050639512003540000011032752220546446478_);}
	.st120{fill:url(#SVGID_00000164513786804089103370000011930850064698937023_);}
	.st121{fill:url(#SVGID_00000073681158632771986850000001278152957024502442_);}
	.st122{fill:url(#SVGID_00000142865256189557575460000004429601114701519760_);}
	.st123{fill:url(#SVGID_00000129177324927462740560000016898060828734376071_);}
	.st124{fill:url(#SVGID_00000028302845041569004300000018079017911196911030_);}
	.st125{fill:url(#SVGID_00000062894042375749656180000013300760402752070024_);}
	.st126{fill:url(#SVGID_00000106855226964551102320000005149306136507771520_);}
	.st127{fill:url(#SVGID_00000108278333113568654150000014014425524015049136_);}
	.st128{fill:url(#SVGID_00000165915376818637877700000010186985176762460546_);}
	.st129{fill:url(#SVGID_00000023277825939593781130000006734125060008216469_);}
	.st130{fill:url(#SVGID_00000090280016468987978100000000110226980324081543_);}
	.st131{fill:url(#SVGID_00000098219076530787400540000013487048361847769531_);}
	.st132{fill:url(#SVGID_00000023997536397214569150000011351355814718581947_);}
	.st133{fill:url(#SVGID_00000013168280010507312850000016059231075065764007_);}
	.st134{fill:url(#SVGID_00000157268404394146010690000017852206212008370588_);}
	.st135{fill:url(#SVGID_00000180358427536474009350000005911256263123265718_);}
	.st136{fill:url(#SVGID_00000065044734107578696600000014356610936922226586_);}
	.st137{fill:url(#SVGID_00000030462875702617356170000009935128456552926396_);}
	.st138{fill:url(#SVGID_00000011726181757835531860000011882981009440681908_);}
	.st139{fill:url(#SVGID_00000123415510218379593150000006050984167627312308_);}
	.st140{fill:url(#SVGID_00000041991645004284385950000009777045616208085661_);}
	.st141{fill:url(#SVGID_00000101065078041535694320000004805259015136401565_);}
	.st142{fill:url(#SVGID_00000159446335425149362990000002196883354382886582_);}
	.st143{fill:url(#SVGID_00000017495073214608709060000008950218677023861151_);}
	.st144{fill:url(#SVGID_00000094604516818754642160000002795827168567257761_);}
	.st145{fill:url(#SVGID_00000059310958335660900410000011927832438692745871_);}
	.st146{fill:url(#SVGID_00000067914961372744123950000013667445827792936614_);}
	.st147{fill:url(#SVGID_00000114776704534275102150000014869918849785401744_);}
	.st148{fill:url(#SVGID_00000045602038025615922490000004220547227552366977_);}
	.st149{fill:url(#SVGID_00000166669881654772249930000016063728462772318646_);}
	.st150{fill:url(#SVGID_00000101820535332774948040000017904188125782349224_);}
	.st151{fill:url(#SVGID_00000003101581139025434120000016438580921080989840_);}
	.st152{fill:url(#SVGID_00000153706753286169986680000007814404801172445066_);}
	.st153{fill:url(#SVGID_00000030447474996845295800000011162376193597082767_);}
	.st154{fill:url(#SVGID_00000037694724689686889960000016089634688201515192_);}
	.st155{fill:url(#SVGID_00000078036016491787101380000005297953699747154848_);}
	.st156{fill:url(#SVGID_00000085214401635019297110000008121127686101874340_);}
</style>
<g>
	<polygon class="st52" points="103.04,139.54 104.33,139.54 103.69,138.42 	"/>
	<polygon class="st52" points="86.16,81.04 86.8,79.93 94.6,66.42 95.24,65.31 95.89,66.42 111.48,66.42 112.13,65.31 112.77,66.42 
		128.37,66.42 129.01,65.3 129.66,66.42 145.26,66.42 145.9,65.31 146.55,66.42 162.14,66.42 162.79,65.3 163.43,66.42 
		179.03,66.42 179.67,65.31 180.32,66.42 195.91,66.42 196.55,65.31 204.35,51.8 86.15,51.8 78.35,65.3 78.35,65.31 79,66.42 
		77.71,66.42 69.91,79.92 70.56,81.04 69.27,81.04 61.47,94.55 62.11,95.67 69.91,109.18 70.56,110.29 78.35,123.79 78.35,123.8 
		79,124.92 86.8,138.42 87.44,139.54 95.24,153.05 95.89,154.16 103.68,167.67 104.33,168.79 112.13,182.3 112.77,183.41 
		120.57,196.91 121.22,198.03 129.01,211.54 129.66,212.66 137.46,226.16 138.1,227.28 145.9,240.79 146.54,241.91 154.28,255.3 
		154.34,255.41 162.14,241.91 162.79,240.78 170.58,227.28 171.23,226.17 171.23,226.16 179.02,212.66 179.67,211.54 187.47,198.03 
		188.12,196.91 195.91,183.41 196.56,182.29 204.35,168.79 187.47,168.79 179.67,182.3 180.32,183.41 179.03,183.41 171.23,196.91 
		171.88,198.03 170.59,198.03 162.79,211.54 163.43,212.66 162.14,212.66 154.35,226.16 154.99,227.28 153.7,227.28 154.28,226.28 
		154.28,226.05 146.55,212.66 145.25,212.66 145.9,211.54 138.1,198.03 136.81,198.03 137.46,196.91 129.66,183.41 128.37,183.41 
		129.01,182.29 121.22,168.79 119.93,168.79 120.57,167.67 112.77,154.16 111.48,154.16 112.13,153.04 104.33,139.54 103.04,139.54 
		103.69,138.42 104.33,139.54 119.92,139.54 120.57,138.42 121.22,139.54 136.81,139.54 137.46,138.42 138.1,139.54 153.69,139.54 
		154.28,138.53 154.28,138.31 154.34,138.42 162.14,124.92 94.59,124.92 95.24,123.79 87.44,110.29 86.15,110.29 86.8,109.17 
		79,95.67 77.71,95.67 78.36,94.55 	"/>
	<polygon class="st52" points="212.8,212.66 205,226.16 205.65,227.28 204.35,227.28 196.56,240.78 197.21,241.91 195.91,241.91 
		188.12,255.41 188.76,256.53 187.47,256.53 179.67,270.03 180.32,271.15 179.02,271.15 171.23,284.66 171.23,284.66 171.87,285.78 
		170.58,285.78 162.79,299.28 163.43,300.4 162.14,300.4 154.34,313.9 154.99,315.02 153.69,315.02 154.28,314.01 154.28,313.8 
		146.54,300.4 145.26,300.4 145.9,299.29 138.1,285.78 136.81,285.78 137.46,284.66 129.66,271.15 128.37,271.15 129.01,270.04 
		121.21,256.53 119.92,256.53 120.57,255.41 120.57,255.41 112.77,241.91 111.48,241.91 112.13,240.79 104.33,227.28 103.04,227.28 
		103.68,226.16 95.89,212.66 94.6,212.66 95.24,211.54 87.44,198.03 86.15,198.03 86.8,196.91 79,183.41 77.71,183.41 78.35,182.3 
		70.56,168.79 69.26,168.79 69.91,167.67 62.11,154.16 60.82,154.16 61.47,153.05 53.67,139.54 52.38,139.54 53.03,138.42 
		45.23,124.92 43.94,124.92 44.58,123.8 36.78,110.29 35.5,110.29 36.14,109.18 28.34,95.67 27.05,95.67 27.69,94.55 27.69,94.55 
		35.49,81.04 36.14,79.92 43.94,66.42 44.58,65.31 52.38,51.8 53.03,50.68 60.82,37.17 61.47,36.06 69.27,22.55 69.91,21.43 
		70.56,22.55 86.16,22.55 86.8,21.43 87.44,22.55 103.04,22.55 103.69,21.43 104.33,22.55 119.93,22.55 120.57,21.43 121.22,22.55 
		136.81,22.55 137.46,21.43 138.1,22.55 153.69,22.55 154.28,21.54 154.28,21.32 154.34,21.43 154.99,22.55 170.59,22.55 
		171.23,21.43 171.87,22.55 187.47,22.55 188.12,21.43 188.76,22.55 204.35,22.55 205,21.43 205.65,22.55 221.24,22.55 
		221.88,21.43 229.68,7.93 60.83,7.93 53.03,21.43 53.67,22.55 52.38,22.55 44.58,36.06 45.23,37.17 43.94,37.17 36.14,50.68 
		36.78,51.8 35.5,51.8 27.7,65.31 28.34,66.42 27.05,66.42 19.25,79.93 19.9,81.04 18.61,81.04 10.81,94.55 11.45,95.67 
		19.25,109.17 19.9,110.29 27.7,123.8 28.34,124.92 36.14,138.42 36.78,139.54 44.58,153.05 45.23,154.16 53.03,167.67 
		53.67,168.79 61.47,182.29 62.11,183.41 69.91,196.91 70.56,198.03 78.35,211.54 79,212.66 86.8,226.16 87.44,227.28 95.24,240.78 
		95.89,241.91 103.69,255.41 104.33,256.53 112.13,270.03 112.77,271.15 120.57,284.66 121.22,285.78 129.01,299.28 129.66,300.4 
		137.46,313.9 138.1,315.02 145.9,328.53 146.55,329.65 154.28,343.04 154.35,343.16 162.14,329.65 162.79,328.53 170.59,315.02 
		171.23,313.9 179.03,300.4 179.67,299.29 187.47,285.78 188.12,284.66 195.91,271.15 196.56,270.04 204.36,256.53 205.01,255.41 
		212.8,241.91 213.45,240.79 221.24,227.28 221.89,226.16 229.69,212.66 	"/>
</g>
</svg>
